<svg width="80" height="50" viewBox="0 0 80 50" fill="none" xmlns="http://www.w3.org/2000/svg">
<path fill-rule="evenodd" clip-rule="evenodd" d="M33.9975 30.5134L34.2645 27.9634C33.4441 28.3399 32.5657 28.6154 31.6215 28.6154C30.1279 28.6154 28.4059 27.9168 28.0886 26.1042H36.416C36.5011 22.1414 34.4812 19.5642 30.4413 19.5642C26.8658 19.5642 24.5363 21.9706 24.5363 25.1766C24.5363 28.8677 27.1444 31.0412 30.8438 31.0412C31.9582 31.0412 33.0726 30.8937 33.9975 30.5134ZM17.1957 31.0412C21.1272 31.0412 23.5032 28.6775 23.5032 24.6487V15.9391H20.2875V20.8334C19.6994 20.2008 18.5191 19.5642 16.9249 19.5642C13.4345 19.5642 11.0973 21.8659 11.0973 25.3047C11.0973 28.596 13.5583 31.0412 17.1957 31.0412ZM47.9396 23.3873C47.9667 23.3873 47.9241 23.3912 47.9473 23.3873C48.2878 20.6277 50.3503 19.5642 53.001 19.5642C53.5043 19.5642 54.1146 19.6656 54.5503 19.7379C54.7176 19.7657 54.8591 19.7892 54.959 19.801L54.3476 22.6266C54.1386 22.5179 53.5505 22.3743 53.0668 22.3743C51.5344 22.3743 51.1088 23.3834 51.1088 24.967V30.8278H47.8738V24.1636C47.8738 20.9809 45.5636 19.5642 42.4951 19.5642C39.4226 19.5642 37.1086 20.9809 37.1086 24.1636V30.8278H40.3281V24.967C40.3281 23.3834 40.9356 22.3743 42.4951 22.3743C44.0468 22.3743 44.6582 23.3834 44.6582 24.967V30.8278H47.8738C45.2773 41.2685 35.8084 49 24.5983 49C13.6396 49 4.40678 41.61 1.57038 31.5264C1.55103 31.4643 1.30338 30.6182 1.11377 29.6168C1.07894 29.4383 1.00155 28.9609 0.958984 28.6038C0.971678 28.6547 0.979273 28.6835 0.987345 28.7141C0.996497 28.7487 1.00626 28.7857 1.02477 28.8599C1.1602 29.4033 1.43494 29.7332 1.45042 29.7488C2.1276 30.6337 3.21882 30.754 3.21882 30.754V30.7501C3.49743 30.8006 3.79152 30.8278 4.09721 30.8278H10.4085L10.869 27.9634H5.16909C4.28682 27.9634 3.82247 27.4549 3.82247 26.3798V24.606H9.39854L9.85902 21.8426H3.82247V18.8074H10.4898L10.9309 15.9391H2.43716C6.00492 7.17902 14.5799 1 24.5983 1C37.2711 1 47.1037 10.8857 47.9396 23.3873ZM72.9438 22.3878C71.237 22.3878 70.159 23.6022 70.159 25.2984C70.159 26.9753 71.2557 28.2321 72.9438 28.2321C74.6319 28.2321 75.7735 27.037 75.7735 25.2984C75.7735 23.5636 74.6319 22.3878 72.9438 22.3878ZM75.8448 20.8574V16H78.959V24.6507C78.959 28.6523 76.6608 31 72.8542 31C69.3358 31 66.959 28.5675 66.959 25.2984C66.959 21.8867 69.2123 19.6006 72.5922 19.6006C74.138 19.6006 75.2759 20.229 75.8448 20.8574ZM58.4644 24.205C58.738 23.0514 59.6329 22.1844 61.0319 22.1844C62.3489 22.1844 63.2829 22.9323 63.451 24.205H58.4644ZM54.959 25.3772C54.959 28.9161 57.589 31 61.3289 31C62.4544 31 63.5838 30.8586 64.5139 30.4939L64.7836 28.0491C63.9551 28.41 63.0719 28.6742 62.1183 28.6742C60.6099 28.6742 58.8669 28.0044 58.5465 26.2666H66.9564C67.0424 22.4672 65.0024 20 60.9264 20C57.3155 20 54.959 22.3034 54.959 25.3772ZM30.6013 21.8441C31.9053 21.8441 32.8302 22.6243 32.9966 23.9517H28.059C28.3299 22.7523 29.216 21.8441 30.6013 21.8441ZM13.959 25.3031C13.959 26.9915 15.0928 28.2568 16.838 28.2568C18.5831 28.2568 19.7595 27.0536 19.7595 25.3031C19.7595 23.5527 18.5831 22.3727 16.838 22.3727C15.0696 22.3727 13.959 23.5954 13.959 25.3031Z" fill="#F72717"/>
</svg>
