<?xml version="1.0" encoding="UTF-8" standalone="no"?>
<!DOCTYPE svg PUBLIC "-//W3C//DTD SVG 1.1//EN" "http://www.w3.org/Graphics/SVG/1.1/DTD/svg11.dtd">
<svg width="100%" height="100%" viewBox="0 0 200 35" version="1.1" xmlns="http://www.w3.org/2000/svg" xmlns:xlink="http://www.w3.org/1999/xlink" xml:space="preserve" xmlns:serif="http://www.serif.com/" style="fill-rule:evenodd;clip-rule:evenodd;stroke-linejoin:round;stroke-miterlimit:2;">
    <g transform="matrix(1,0,0,1,-0.002018,0)">
        <clipPath id="_clip1">
            <rect x="0" y="0" width="200" height="35.537"/>
        </clipPath>
        <g clip-path="url(#_clip1)">
            <path d="M28.644,4.364C29.277,5.096 28.924,5.984 28.472,6.838C24.588,14.158 23.573,24.531 28.463,31.8C29.17,32.844 29.113,33.608 28.414,34.282C26.359,36.263 22.767,31.324 21.806,29.926C19.973,27.255 18.913,24.008 18.682,21.058C18.378,17.121 19.602,13.11 21.608,9.715C22.471,8.252 26.326,1.71 28.644,4.365M11.573,9.633C11.998,8.769 13.055,8.403 13.923,8.819C14.795,9.247 15.008,10.241 14.737,11.17C13.255,16.227 12.526,22.907 15.354,27.699C15.515,27.97 15.599,28.28 15.599,28.595C15.599,29.559 14.806,30.353 13.841,30.353C13.221,30.353 12.645,30.025 12.329,29.491C10.619,26.614 9.025,23.713 8.779,20.671C8.482,16.989 9.863,13.151 11.573,9.633M1.142,14.573C1.472,13.66 2.178,12.781 3.09,13.11C4.003,13.439 4.159,14.507 3.83,15.42C3.238,17.705 3.205,21.467 4.348,23.59C4.808,24.444 4.734,25.241 3.879,25.702C3.025,26.162 2.285,25.784 1.816,24.937C0.986,23.392 0.181,21.797 0.033,20.097C-0.14,18.14 0.436,16.537 1.151,14.573L1.142,14.573Z" style="fill:rgb(112,108,255);fill-rule:nonzero;"/>
            <path d="M189.187,31.694C187.264,31.694 185.587,31.406 184.173,30.847C182.784,30.28 181.625,29.491 180.688,28.463C179.784,27.419 179.102,26.195 178.65,24.814C178.198,23.424 177.968,21.929 177.968,20.31C177.969,18.585 178.197,16.998 178.65,15.55C179.135,14.104 179.842,12.847 180.771,11.77C181.714,10.685 182.891,9.827 184.214,9.263C185.604,8.671 187.19,8.367 188.973,8.367C190.756,8.367 192.302,8.663 193.609,9.263C194.94,9.856 196.017,10.692 196.839,11.77C197.66,12.814 198.213,14.047 198.5,15.469L193.486,17.039C193.428,16.192 193.198,15.436 192.804,14.786C192.424,14.123 191.866,13.579 191.193,13.216C190.519,12.846 189.705,12.666 188.768,12.666C187.831,12.666 187.067,12.846 186.384,13.216C185.735,13.554 185.184,14.055 184.724,14.704C184.298,15.355 183.958,16.15 183.705,17.088C183.475,17.992 183.368,19.011 183.368,20.145C183.368,21.707 183.582,23.03 184.009,24.14C184.436,25.241 185.086,26.113 185.965,26.73C186.845,27.32 187.938,27.617 189.236,27.617C190.395,27.617 191.332,27.403 192.039,26.984C192.779,26.532 193.33,25.948 193.7,25.241C194.101,24.522 194.348,23.727 194.423,22.907L199.182,23.967C199.009,25.127 198.689,26.178 198.204,27.107C197.709,28.054 197.03,28.893 196.206,29.573C195.384,30.255 194.39,30.773 193.231,31.143C192.072,31.513 190.724,31.693 189.195,31.693L189.187,31.694ZM169.321,31.143L169.321,8.918L174.672,8.918L174.672,31.143L169.321,31.143ZM172.001,5.441C170.924,5.441 170.086,5.219 169.494,4.759C168.927,4.274 168.647,3.6 168.647,2.721C168.647,1.841 168.935,1.175 169.494,0.723C170.086,0.238 170.924,-0 172.001,-0C173.135,-0 173.981,0.23 174.549,0.682C175.116,1.134 175.395,1.816 175.395,2.721C175.395,3.625 175.099,4.282 174.499,4.759C173.932,5.211 173.102,5.441 171.992,5.441L172.001,5.441ZM162.072,31.652C159.721,31.652 157.995,31.028 156.886,29.787C155.784,28.513 155.225,26.54 155.225,23.885L155.225,13.225L151.954,13.225L152.036,8.975L154.206,8.975C155.028,8.975 155.636,8.852 156.031,8.597C156.424,8.342 156.665,7.89 156.754,7.241L157.264,4.011L160.362,4.011L160.362,8.943L166.223,8.943L166.223,13.406L160.362,13.406L160.362,23.688C160.362,24.732 160.601,25.504 161.086,25.981C161.595,26.466 162.343,26.704 163.338,26.704C163.873,26.704 164.397,26.647 164.908,26.532C165.44,26.393 165.943,26.163 166.395,25.85L166.395,30.945C165.516,31.233 164.71,31.414 163.971,31.496C163.263,31.611 162.624,31.669 162.055,31.669L162.072,31.652ZM141.507,31.694C140.004,31.694 138.646,31.538 137.431,31.225C136.239,30.945 135.22,30.534 134.373,29.992C133.525,29.425 132.846,28.76 132.335,27.995C131.822,27.2 131.501,26.296 131.398,25.356L135.606,23.786C135.662,24.526 135.944,25.192 136.452,25.784C136.962,26.351 137.669,26.803 138.573,27.14C139.477,27.477 140.57,27.65 141.844,27.65C143.258,27.65 144.351,27.436 145.116,27.017C145.905,26.565 146.307,25.924 146.307,25.102C146.307,24.51 146.093,24.041 145.666,23.696C145.239,23.326 144.622,23.03 143.8,22.8C143.011,22.545 142.042,22.307 140.916,22.077C139.846,21.85 138.783,21.595 137.726,21.313C136.711,21.015 135.728,20.616 134.792,20.121C133.936,19.634 133.195,18.966 132.622,18.165C132.088,17.343 131.817,16.307 131.817,15.066C131.817,13.71 132.17,12.535 132.877,11.54C133.617,10.545 134.661,9.773 136.017,9.206C137.406,8.639 139.074,8.359 141.031,8.359C142.872,8.359 144.458,8.614 145.79,9.123C147.146,9.633 148.255,10.373 149.102,11.334C149.952,12.273 150.512,13.438 150.713,14.688L146.291,16.093C146.209,15.304 145.938,14.63 145.485,14.096C145.033,13.528 144.425,13.103 143.661,12.822C142.896,12.542 142,12.395 140.981,12.395C139.674,12.396 138.655,12.624 137.924,13.077C137.184,13.529 136.822,14.137 136.822,14.902C136.822,15.526 137.052,16.019 137.505,16.389C137.988,16.759 138.64,17.055 139.461,17.277C140.307,17.507 141.277,17.729 142.346,17.959C143.48,18.189 144.573,18.452 145.617,18.765C146.624,19.019 147.594,19.403 148.502,19.907C149.327,20.37 150.027,21.027 150.54,21.822C151.05,22.587 151.305,23.582 151.305,24.798C151.306,26.267 150.909,27.527 150.113,28.578C149.323,29.599 148.191,30.377 146.718,30.913C145.271,31.423 143.529,31.678 141.491,31.677L141.507,31.694ZM115.748,31.693C113.2,31.693 111.269,30.83 109.97,29.104C108.696,27.345 108.055,24.699 108.055,21.156L108.055,8.918L113.455,8.918L113.455,20.556C113.455,22.792 113.792,24.469 114.474,25.57C115.156,26.671 116.2,27.23 117.622,27.23C118.444,27.23 119.167,27.033 119.792,26.639C120.417,26.211 120.951,25.636 121.403,24.896C121.855,24.132 122.208,23.253 122.463,22.258C122.751,21.263 122.915,20.178 122.973,18.986L122.973,8.918L128.324,8.918L128.324,31.143L123.902,31.143L123.984,24.132L123.219,24.132C122.85,25.915 122.323,27.362 121.65,28.463C121,29.565 120.195,30.387 119.225,30.929C118.263,31.439 117.096,31.693 115.74,31.693L115.748,31.693ZM93.934,31.694C91.756,31.694 89.824,31.258 88.156,30.378C86.487,29.474 85.164,28.151 84.202,26.425C83.265,24.666 82.797,22.513 82.797,19.965C82.797,17.417 83.274,15.205 84.244,13.505C85.239,11.777 86.57,10.489 88.238,9.641C89.907,8.795 91.788,8.367 93.893,8.367C95.997,8.367 98.003,8.803 99.671,9.682C101.34,10.562 102.663,11.877 103.625,13.636C104.586,15.362 105.071,17.516 105.071,20.096C105.071,22.676 104.586,24.872 103.625,26.598C102.663,28.325 101.331,29.612 99.63,30.461C97.962,31.283 96.063,31.694 93.934,31.694M94.148,27.617C95.34,27.617 96.342,27.346 97.164,26.811C97.986,26.243 98.611,25.407 99.038,24.304C99.49,23.203 99.721,21.88 99.721,20.351C99.722,18.74 99.481,17.367 98.997,16.233C98.545,15.073 97.879,14.18 97,13.553C96.153,12.929 95.077,12.617 93.77,12.617C92.635,12.617 91.64,12.904 90.794,13.463C89.948,13.997 89.29,14.811 88.838,15.888C88.411,16.965 88.198,18.296 88.198,19.882C88.198,22.372 88.723,24.288 89.767,25.619C90.842,26.951 92.3,27.617 94.14,27.617L94.148,27.617ZM71.775,31.694C69.852,31.694 68.175,31.406 66.761,30.847C65.372,30.28 64.213,29.491 63.276,28.463C62.372,27.419 61.69,26.195 61.238,24.814C60.786,23.424 60.556,21.929 60.556,20.31C60.557,18.585 60.785,16.998 61.238,15.55C61.687,14.162 62.408,12.877 63.358,11.77C64.301,10.684 65.479,9.827 66.802,9.263C68.192,8.671 69.778,8.367 71.562,8.367C73.346,8.367 74.89,8.663 76.189,9.263C77.52,9.856 78.597,10.692 79.419,11.77C80.24,12.814 80.793,14.047 81.079,15.469L76.065,17.039C76.008,16.192 75.778,15.436 75.383,14.786C75.003,14.123 74.445,13.579 73.773,13.216C73.09,12.846 72.285,12.666 71.348,12.666C70.411,12.666 69.646,12.846 68.964,13.216C68.314,13.554 67.764,14.055 67.304,14.704C66.876,15.354 66.539,16.151 66.284,17.088C66.054,17.992 65.947,19.011 65.947,20.145C65.947,21.707 66.161,23.03 66.589,24.14C67.016,25.241 67.665,26.113 68.545,26.73C69.426,27.321 70.516,27.616 71.816,27.617C72.975,27.617 73.912,27.403 74.619,26.984C75.359,26.532 75.909,25.948 76.279,25.241C76.68,24.522 76.927,23.727 77.002,22.907L81.762,23.967C81.589,25.127 81.268,26.178 80.783,27.107C80.289,28.054 79.61,28.893 78.786,29.573C77.964,30.255 76.97,30.773 75.811,31.143C74.652,31.513 73.304,31.693 71.775,31.693M52.115,8.071C52.221,9.091 52.625,10.775 52.625,10.775L52.082,11.318C51.071,10.554 49.92,9.723 48.687,9.132C47.38,8.712 45.975,8.499 44.783,8.499C42.827,8.499 41.183,9.008 39.852,10.027C38.545,11.022 37.558,12.395 36.876,14.145C36.194,15.871 35.856,17.852 35.856,20.096C35.856,22.471 36.226,24.543 36.958,26.302C37.698,28.028 38.742,29.376 40.106,30.337C41.496,31.299 43.123,31.784 44.996,31.784C46.385,31.784 47.561,31.529 48.523,31.019C49.517,30.485 50.339,29.704 50.989,28.685C51.638,27.666 52.123,26.417 52.435,24.945L53.241,24.945L53.158,31.233L57.704,31.233L57.704,8.071L52.115,8.071ZM52.345,20.523C52.345,21.23 52.213,21.995 51.959,22.817C51.731,23.607 51.373,24.354 50.899,25.027C50.445,25.711 49.851,26.291 49.156,26.729C48.449,27.156 47.627,27.369 46.69,27.37C45.613,27.37 44.676,27.074 43.887,26.474C43.123,25.882 42.523,25.044 42.104,23.967C41.676,22.892 41.462,21.632 41.462,20.187C41.462,18.741 41.659,17.481 42.054,16.406C42.481,15.33 43.075,14.481 43.838,13.858C44.603,13.233 45.538,12.921 46.641,12.921C47.381,12.921 48.047,13.077 48.638,13.389C49.263,13.669 49.797,14.071 50.248,14.581C50.728,15.061 51.118,15.623 51.4,16.241C51.712,16.833 51.942,17.449 52.082,18.066C52.254,18.691 52.337,19.266 52.337,19.808L52.337,20.532L52.345,20.523Z" style="fill:rgb(31,30,93);fill-rule:nonzero;"/>
        </g>
    </g>
</svg>
