<?xml version="1.0" encoding="UTF-8" standalone="no"?>
<!DOCTYPE svg PUBLIC "-//W3C//DTD SVG 1.1//EN" "http://www.w3.org/Graphics/SVG/1.1/DTD/svg11.dtd">
<svg width="100%" height="100%" viewBox="0 0 400 160" version="1.1" xmlns="http://www.w3.org/2000/svg" xmlns:xlink="http://www.w3.org/1999/xlink" xml:space="preserve" xmlns:serif="http://www.serif.com/" style="fill-rule:evenodd;clip-rule:evenodd;stroke-linejoin:round;stroke-miterlimit:2;">
    <g transform="matrix(1.378474,0,0,1.378474,-2865.110023,-28.6882)">
        <g transform="matrix(0.220601,0,0,0.220601,2164.077036,56.573884)">
            <path d="M178.486,47.334C205.167,47.334 226.842,68.733 227.341,95.299C227.814,110.778 240.518,123.155 256.087,123.155C271.672,123.155 284.375,110.778 284.857,95.299L304.948,95.299C304.484,121.849 282.76,143.256 256.087,143.256C229.415,143.256 207.713,121.849 207.224,95.299C206.758,79.836 194.046,67.426 178.486,67.426C162.892,67.426 150.205,79.836 149.731,95.299L129.615,95.299C130.104,68.733 151.797,47.334 178.486,47.334Z" style="fill:rgb(237,237,237);"/>
        </g>
        <g transform="matrix(0.220601,0,0,0.220601,2164.077036,56.573884)">
            <path d="M387.074,47.245L407.181,47.245L407.181,95.299C407.181,95.487 407.166,95.691 407.166,95.886C406.372,122.168 384.796,143.256 358.318,143.256C331.785,143.256 310.207,122.119 309.456,95.772L309.456,47.073L329.557,47.073C329.557,47.269 329.563,95.691 329.582,95.87C330.355,111.072 342.929,123.155 358.318,123.155C373.724,123.155 386.33,111.006 387.049,95.772C387.064,95.617 387.064,95.462 387.074,95.299L387.074,47.245ZM102.542,0.929L122.659,0.929L122.675,143.019L102.542,143.019L102.542,0.929ZM508.565,125.138L508.565,125.546L508.565,143.224L488.465,143.224L488.465,132.283C480.267,138.92 469.834,142.905 458.486,142.905C432.197,142.905 410.88,121.578 410.854,95.299L410.841,95.299C410.854,94.834 410.854,94.377 410.88,93.919C411.468,72.627 426.017,54.829 445.732,49.351C450.159,48.036 454.845,47.334 459.693,47.334C486.309,47.334 507.945,68.618 508.556,95.079C508.556,95.112 508.556,111.48 508.565,125.138ZM459.172,124.061C475.092,124.061 487.99,111.169 487.99,95.259C487.99,90.777 486.955,86.538 485.134,82.76C480.3,73.64 470.731,67.426 459.693,67.426C444.116,67.426 430.843,79.836 430.353,95.299C430.376,111.186 443.275,124.061 459.172,124.061ZM178.486,143.256C151.797,143.256 130.104,121.866 129.615,95.299L149.731,95.299C150.205,110.778 162.892,123.155 178.486,123.155C194.046,123.155 206.758,110.778 207.224,95.299C207.713,68.733 229.415,47.334 256.087,47.334C282.71,47.334 304.354,68.618 304.948,95.079L304.948,201L284.857,201L284.841,94.981C284.195,79.673 271.574,67.426 256.087,67.426C240.518,67.426 227.814,79.836 227.341,95.299C226.842,121.866 205.167,143.256 178.486,143.256ZM94.092,101.797L21.765,101.797C22.818,108.19 25.602,113.251 30.141,117.024C34.673,120.795 40.478,122.674 47.499,122.674C55.924,122.674 63.133,119.735 69.199,113.848L88.157,122.763C83.429,129.465 77.755,134.438 71.167,137.631C64.569,140.855 56.74,142.463 47.67,142.463C33.586,142.463 22.124,138.039 13.274,129.14C4.408,120.266 0,109.146 0,95.789C0,82.106 4.408,70.741 13.234,61.695C22.059,52.633 33.129,48.126 46.421,48.126C60.553,48.126 72.04,52.633 80.89,61.695C89.757,70.741 94.166,82.677 94.166,97.52L94.092,101.797ZM71.583,84.081C70.097,79.085 67.167,74.994 62.782,71.876C58.397,68.749 53.328,67.173 47.548,67.173C41.261,67.173 35.766,68.937 31.023,72.448C28.059,74.643 25.292,78.53 22.77,84.081L71.583,84.081ZM524.55,132.944L524.55,142.463L522.877,142.463L522.877,132.944L519.831,132.944L519.831,131.425L527.571,131.425L527.571,132.944L524.55,132.944ZM537.547,142.463L537.547,135.074L535.001,140.471L533.775,140.471L531.154,135.074L531.154,142.463L529.49,142.463L529.49,131.425L531.154,131.425L534.388,138.307L537.547,131.425L539.221,131.425L539.221,142.463L537.547,142.463Z" style="fill:white;"/>
        </g>
    </g>
</svg>
