<?xml version="1.0" encoding="UTF-8" standalone="no"?>
<!DOCTYPE svg PUBLIC "-//W3C//DTD SVG 1.1//EN" "http://www.w3.org/Graphics/SVG/1.1/DTD/svg11.dtd">
<svg width="100%" height="100%" viewBox="0 0 540 201" version="1.1" xmlns="http://www.w3.org/2000/svg" xmlns:xlink="http://www.w3.org/1999/xlink" xml:space="preserve" xmlns:serif="http://www.serif.com/" style="fill-rule:evenodd;clip-rule:evenodd;stroke-linejoin:round;stroke-miterlimit:2;">
    <g transform="matrix(1,0,0,1,0,-0.929001)">
        <path d="M178.486,47.334C205.167,47.334 226.842,68.733 227.341,95.299C227.814,110.778 240.518,123.155 256.087,123.155C271.672,123.155 284.375,110.778 284.857,95.299L304.948,95.299C304.484,121.849 282.76,143.256 256.087,143.256C229.415,143.256 207.713,121.849 207.224,95.299C206.758,79.836 194.046,67.426 178.486,67.426C162.892,67.426 150.205,79.836 149.731,95.299L129.615,95.299C130.104,68.733 151.797,47.334 178.486,47.334Z" style="fill:rgb(148,156,161);"/>
    </g>
    <g transform="matrix(1,0,0,1,0,-0.929001)">
        <path d="M387.074,47.245L387.074,95.299C387.064,95.462 387.064,95.617 387.049,95.772C386.33,111.006 373.724,123.155 358.318,123.155C342.929,123.155 330.355,111.072 329.582,95.87C329.563,95.691 329.557,47.269 329.557,47.073L309.456,47.073L309.456,95.772C310.207,122.119 331.785,143.256 358.318,143.256C384.796,143.256 406.372,122.168 407.166,95.886C407.166,95.691 407.181,95.487 407.181,95.299L407.181,47.245L387.074,47.245Z" style="fill:rgb(228,24,55);"/>
    </g>
    <g transform="matrix(1,0,0,1,0,-0.929001)">
        <path d="M102.542,0.929L102.542,143.019L122.675,143.019C122.675,143.019 122.659,1.003 122.659,0.929L102.542,0.929Z" style="fill:rgb(228,24,55);"/>
    </g>
    <g transform="matrix(1,0,0,1,0,-0.929001)">
        <path d="M459.172,124.061C443.275,124.061 430.376,111.186 430.353,95.299C430.843,79.836 444.116,67.426 459.693,67.426C470.731,67.426 480.3,73.64 485.134,82.76C486.955,86.538 487.99,90.777 487.99,95.259C487.99,111.169 475.092,124.061 459.172,124.061ZM508.565,143.224L508.565,125.138L508.565,125.546C508.556,111.808 508.556,95.112 508.556,95.079C507.945,68.618 486.309,47.334 459.693,47.334C454.845,47.334 450.159,48.036 445.732,49.351C426.017,54.829 411.468,72.627 410.88,93.919C410.854,94.377 410.854,94.834 410.841,95.299L410.854,95.299C410.88,121.578 432.197,142.905 458.486,142.905C469.834,142.905 480.267,138.92 488.465,132.283L488.465,143.224L508.565,143.224Z" style="fill:rgb(228,24,55);"/>
    </g>
    <g transform="matrix(1,0,0,1,0,-0.929001)">
        <path d="M178.486,143.256C205.167,143.256 226.842,121.866 227.341,95.299C227.814,79.836 240.518,67.426 256.087,67.426C271.574,67.426 284.195,79.673 284.841,94.981C284.841,95.079 284.857,201 284.857,201L304.948,201L304.948,95.079C304.354,68.618 282.71,47.334 256.087,47.334C229.415,47.334 207.713,68.733 207.224,95.299C206.758,110.778 194.046,123.155 178.486,123.155C162.892,123.155 150.205,110.778 149.731,95.299L129.615,95.299C130.104,121.866 151.797,143.256 178.486,143.256Z" style="fill:rgb(228,24,55);"/>
    </g>
    <g transform="matrix(1,0,0,1,0,-0.929001)">
        <path d="M71.583,84.081C70.097,79.085 67.167,74.994 62.782,71.876C58.397,68.749 53.328,67.173 47.548,67.173C41.261,67.173 35.766,68.937 31.023,72.448C28.059,74.643 25.292,78.53 22.77,84.081L71.583,84.081ZM94.092,101.797L21.765,101.797C22.818,108.19 25.602,113.251 30.141,117.024C34.673,120.795 40.478,122.674 47.499,122.674C55.924,122.674 63.133,119.735 69.199,113.848L88.157,122.763C83.429,129.465 77.755,134.438 71.167,137.631C64.569,140.855 56.74,142.463 47.67,142.463C33.586,142.463 22.124,138.039 13.274,129.14C4.408,120.266 0,109.146 0,95.789C0,82.106 4.408,70.741 13.234,61.695C22.059,52.633 33.129,48.126 46.421,48.126C60.553,48.126 72.04,52.633 80.89,61.695C89.757,70.741 94.166,82.677 94.166,97.52L94.092,101.797Z" style="fill:rgb(228,24,55);fill-rule:nonzero;"/>
    </g>
    <g transform="matrix(1,0,0,1,0,-0.929001)">
        <path d="M524.55,132.944L524.55,142.463L522.877,142.463L522.877,132.944L519.831,132.944L519.831,131.425L527.571,131.425L527.571,132.944L524.55,132.944Z" style="fill:rgb(228,24,55);fill-rule:nonzero;"/>
    </g>
    <g transform="matrix(1,0,0,1,0,-0.929001)">
        <path d="M537.547,142.463L537.547,135.074L535.001,140.471L533.775,140.471L531.154,135.074L531.154,142.463L529.49,142.463L529.49,131.425L531.154,131.425L534.388,138.307L537.547,131.425L539.221,131.425L539.221,142.463L537.547,142.463Z" style="fill:rgb(228,24,55);fill-rule:nonzero;"/>
    </g>
</svg>
