<?xml version="1.0" encoding="UTF-8" standalone="no"?>
<!DOCTYPE svg PUBLIC "-//W3C//DTD SVG 1.1//EN" "http://www.w3.org/Graphics/SVG/1.1/DTD/svg11.dtd">
<svg width="100%" height="100%" viewBox="0 0 400 160" version="1.1" xmlns="http://www.w3.org/2000/svg" xmlns:xlink="http://www.w3.org/1999/xlink" xml:space="preserve" xmlns:serif="http://www.serif.com/" style="fill-rule:evenodd;clip-rule:evenodd;stroke-linejoin:round;stroke-miterlimit:2;">
    <g transform="matrix(0.133718,0,0,0.133718,116.037164,56.199545)">
        <path d="M136.01,201.48L43.79,201.48L43.79,298.62L0,298.62L0,58.93L43.79,58.93L43.79,159.35L136.01,159.35L136.01,58.93L179.79,58.93L179.79,298.62L136.01,298.62L136.01,201.48ZM319.91,221.14L319.91,118.48L361.36,118.48L361.36,221.14C361.36,263.97 326.52,298.81 283.69,298.81C240.86,298.81 206.01,263.97 206.01,221.14L206.01,118.48L247.48,118.48L247.48,221.14C247.48,241.11 263.73,257.35 283.69,257.35C303.65,257.35 319.91,241.1 319.91,221.14ZM627.605,129.055C627.605,168.115 726.79,140.07 726.79,230.22C726.79,271.97 692.29,298.68 649.5,298.68C620.97,298.68 597.09,286.65 577.84,262.94L608.03,231.56C619.3,244.25 627.27,256.27 651.82,256.27C667.4,256.27 681,243.91 681,229.9C681,184.48 581.81,210.2 581.81,129.06C581.81,85.31 614.32,58.93 659.44,58.93C681.99,58.93 709.52,71.62 723.11,89.98L695.92,122.04C685.31,110.68 669.06,101.33 656.78,101.33C641.53,101.33 627.605,108.005 627.605,129.055ZM1241.21,260.335C1245.87,260.335 1251.18,260.01 1255.82,259.69L1245.53,297.5C1241.54,298.49 1234.24,298.83 1228.93,298.83C1193.45,298.83 1167.59,279.92 1167.59,242.43L1167.59,95.81L1209.71,76.9L1209.71,125L1247.85,125L1247.85,161.48L1209.71,161.48L1209.71,233.46C1209.71,249.72 1216.67,260.335 1241.21,260.335ZM477.96,119.68C524.41,119.68 564.34,157.84 564.34,209.25C564.34,260.66 521.04,298.81 471.61,298.81C427.14,298.81 387.57,261.32 387.57,206.59L387.57,60.36L429.17,60.36L429.17,139.26C443.04,125.65 457.39,119.68 477.96,119.68ZM477.7,256.95C503.76,256.95 524.88,235.83 524.88,209.77C524.88,183.71 503.76,162.59 477.7,162.59C451.64,162.59 430.52,183.71 430.52,209.77C430.52,235.83 451.64,256.95 477.7,256.95ZM929.59,207.085C929.59,257.845 889.66,296.65 843.21,296.65C822.64,296.65 808.29,290.68 794.42,277.07L794.42,355.98L752.82,355.98L752.82,209.75C752.82,155.02 792.4,117.53 836.86,117.53C886.28,117.53 929.59,155.675 929.59,207.085ZM890.13,206.58C890.13,180.52 869.01,159.4 842.95,159.4C816.89,159.4 795.77,180.52 795.77,206.58C795.77,232.64 816.89,253.76 842.95,253.76C869.01,253.76 890.13,232.64 890.13,206.58ZM1064.01,115.52C1107.92,122.3 1141.57,160.14 1141.57,205.95C1141.57,256.55 1100.55,297.57 1049.95,297.57C1029.06,297.57 1009.87,290.5 994.46,278.74L960.51,312.69C961.32,315.4 961.89,318.22 961.89,321.2C961.89,337.65 948.55,350.98 932.11,350.98C915.67,350.98 902.33,337.65 902.33,321.2C902.33,304.75 915.66,291.42 932.11,291.42C935.09,291.42 937.91,291.99 940.62,292.8L974.94,258.48C964.5,243.6 958.32,224.63 958.32,205.95C958.32,187.27 963.94,169.92 973.54,155.43L860.68,67.64C855.39,70.65 849.35,72.49 842.83,72.49C822.81,72.46 806.61,56.22 806.63,36.2C806.66,16.18 822.9,-0.03 842.92,0C862.94,0.03 879.14,16.27 879.13,36.29C879.12,39.43 878.59,42.42 877.84,45.33L992.57,134.58C1004.81,124.73 1019.65,118.03 1035.89,115.52L1035.89,73.73C1024.98,68.58 1017.34,57.55 1017.34,44.74L1017.34,43.77C1017.34,26.1 1031.8,11.64 1049.47,11.64L1050.43,11.64C1068.1,11.64 1082.56,26.1 1082.56,43.77L1082.56,44.74C1082.56,57.54 1074.92,68.58 1064.01,73.73L1064.01,115.52ZM1049.94,252.92C1075.88,252.92 1096.91,231.89 1096.91,205.95C1096.91,180.01 1075.89,158.98 1049.94,158.98C1023.99,158.98 1002.96,180.01 1002.96,205.95C1002.96,231.89 1024,252.92 1049.94,252.92Z" style="fill:white;"/>
    </g>
</svg>
