<?xml version="1.0" encoding="UTF-8" standalone="no"?>
<!DOCTYPE svg PUBLIC "-//W3C//DTD SVG 1.1//EN" "http://www.w3.org/Graphics/SVG/1.1/DTD/svg11.dtd">
<svg width="100%" height="100%" viewBox="0 0 1256 356" version="1.1" xmlns="http://www.w3.org/2000/svg" xmlns:xlink="http://www.w3.org/1999/xlink" xml:space="preserve" xmlns:serif="http://www.serif.com/" style="fill-rule:evenodd;clip-rule:evenodd;stroke-linejoin:round;stroke-miterlimit:2;">
    <g transform="matrix(1,0,0,1,0,0.000042)">
        <g id="HubSpot_Logo">
            <g>
                <path d="M136.01,201.48L43.79,201.48L43.79,298.62L0,298.62L0,58.93L43.79,58.93L43.79,159.35L136.01,159.35L136.01,58.93L179.79,58.93L179.79,298.62L136.01,298.62L136.01,201.48Z" style="fill:rgb(255,72,0);fill-rule:nonzero;"/>
                <path d="M319.91,221.14C319.91,241.1 303.65,257.35 283.69,257.35C263.73,257.35 247.48,241.11 247.48,221.14L247.48,118.48L206.01,118.48L206.01,221.14C206.01,263.97 240.86,298.81 283.69,298.81C326.52,298.81 361.36,263.97 361.36,221.14L361.36,118.48L319.91,118.48L319.91,221.14Z" style="fill:rgb(255,72,0);fill-rule:nonzero;"/>
                <path d="M627.6,129.05C627.6,108 641.53,101.33 656.78,101.33C669.06,101.33 685.31,110.68 695.92,122.04L723.11,89.98C709.52,71.62 681.99,58.93 659.44,58.93C614.32,58.93 581.81,85.31 581.81,129.06C581.81,210.2 681,184.48 681,229.9C681,243.91 667.4,256.27 651.82,256.27C627.27,256.27 619.3,244.25 608.03,231.56L577.84,262.94C597.09,286.65 620.97,298.68 649.5,298.68C692.29,298.68 726.79,271.97 726.79,230.22C726.79,140.07 627.61,168.12 627.61,129.06L627.6,129.05Z" style="fill:rgb(255,72,0);fill-rule:nonzero;"/>
                <path d="M1241.21,260.33C1216.67,260.33 1209.71,249.72 1209.71,233.46L1209.71,161.48L1247.85,161.48L1247.85,125L1209.71,125L1209.71,76.9L1167.59,95.81L1167.59,242.43C1167.59,279.92 1193.45,298.83 1228.93,298.83C1234.24,298.83 1241.54,298.49 1245.53,297.5L1255.82,259.69C1251.18,260.01 1245.87,260.34 1241.21,260.34L1241.21,260.33Z" style="fill:rgb(255,72,0);fill-rule:nonzero;"/>
                <path d="M477.96,119.68C457.39,119.68 443.04,125.65 429.17,139.26L429.17,60.36L387.57,60.36L387.57,206.59C387.57,261.32 427.14,298.81 471.61,298.81C521.04,298.81 564.34,260.66 564.34,209.25C564.34,157.84 524.41,119.68 477.96,119.68ZM477.7,256.95C451.64,256.95 430.52,235.83 430.52,209.77C430.52,183.71 451.64,162.59 477.7,162.59C503.76,162.59 524.88,183.71 524.88,209.77C524.88,235.83 503.76,256.95 477.7,256.95Z" style="fill:rgb(255,72,0);fill-rule:nonzero;"/>
                <path d="M929.59,207.09C929.59,155.68 886.28,117.53 836.86,117.53C792.4,117.53 752.82,155.02 752.82,209.75L752.82,355.98L794.42,355.98L794.42,277.07C808.29,290.68 822.64,296.65 843.21,296.65C889.66,296.65 929.59,257.84 929.59,207.08L929.59,207.09ZM890.13,206.58C890.13,232.64 869.01,253.76 842.95,253.76C816.89,253.76 795.77,232.64 795.77,206.58C795.77,180.52 816.89,159.4 842.95,159.4C869.01,159.4 890.13,180.52 890.13,206.58Z" style="fill:rgb(255,72,0);fill-rule:nonzero;"/>
                <path d="M1064.01,115.52L1064.01,73.73C1074.92,68.58 1082.56,57.54 1082.56,44.74L1082.56,43.77C1082.56,26.1 1068.1,11.64 1050.43,11.64L1049.47,11.64C1031.8,11.64 1017.34,26.1 1017.34,43.77L1017.34,44.74C1017.34,57.55 1024.98,68.58 1035.89,73.73L1035.89,115.52C1019.65,118.03 1004.81,124.73 992.57,134.58L877.84,45.33C878.59,42.42 879.12,39.43 879.13,36.29C879.14,16.27 862.94,0.03 842.92,0C822.9,-0.03 806.66,16.18 806.63,36.2C806.61,56.22 822.81,72.46 842.83,72.49C849.35,72.49 855.39,70.65 860.68,67.64L973.54,155.43C963.94,169.92 958.32,187.27 958.32,205.95C958.32,224.63 964.5,243.6 974.94,258.48L940.62,292.8C937.91,291.99 935.09,291.42 932.11,291.42C915.66,291.42 902.33,304.75 902.33,321.2C902.33,337.65 915.67,350.98 932.11,350.98C948.55,350.98 961.89,337.65 961.89,321.2C961.89,318.22 961.32,315.4 960.51,312.69L994.46,278.74C1009.87,290.5 1029.06,297.57 1049.95,297.57C1100.55,297.57 1141.57,256.55 1141.57,205.95C1141.57,160.14 1107.92,122.3 1064.01,115.52ZM1049.94,252.92C1024,252.92 1002.96,231.89 1002.96,205.95C1002.96,180.01 1023.99,158.98 1049.94,158.98C1075.89,158.98 1096.91,180.01 1096.91,205.95C1096.91,231.89 1075.88,252.92 1049.94,252.92Z" style="fill:rgb(255,72,0);fill-rule:nonzero;"/>
            </g>
        </g>
    </g>
</svg>
