<?xml version="1.0" encoding="UTF-8" standalone="no"?>
<!DOCTYPE svg PUBLIC "-//W3C//DTD SVG 1.1//EN" "http://www.w3.org/Graphics/SVG/1.1/DTD/svg11.dtd">
<svg width="100%" height="100%" viewBox="0 0 400 160" version="1.1" xmlns="http://www.w3.org/2000/svg" xmlns:xlink="http://www.w3.org/1999/xlink" xml:space="preserve" xmlns:serif="http://www.serif.com/" style="fill-rule:evenodd;clip-rule:evenodd;stroke-linejoin:round;stroke-miterlimit:2;">
    <g transform="matrix(2.389036,0,0,2.389036,-277.807252,-111.122901)">
        <path d="M180.399,66.414L180.399,91.154L170.782,98.814L170.782,61.186L180.399,66.414ZM166.3,66.75L166.3,90.596L158.557,93.979L158.557,64.46L166.3,66.75ZM148.193,68.37L154.092,69.32L154.092,88.164L148.166,89.73L148.193,68.37ZM195.851,80.438L200,73.64L202.153,73.64L202.153,86.157L200.09,86.157L200.09,76.973L195.794,83.873L191.527,77.02L191.527,86.147L189.451,86.147L189.451,73.642L191.654,73.642L195.851,80.438ZM209.148,86.146L209.134,85.016C208.511,85.92 207.494,86.358 206.407,86.358C204.824,86.358 203.707,85.328 203.707,83.843C203.707,82.218 204.737,81.257 206.8,80.943L209.061,80.59L209.061,80.45C209.061,79.517 208.369,79.01 207.168,79.01C206.022,79.01 205.048,79.49 204.201,80.253L204.201,78.233C204.964,77.611 206.024,77.203 207.301,77.203C209.745,77.203 211.073,78.446 211.073,80.538L211.073,86.162L209.148,86.146ZM206.901,84.676C208.187,84.676 209.077,83.842 209.077,82.641L209.077,82.161L207.126,82.486C206.18,82.641 205.7,83.051 205.7,83.686C205.714,84.294 206.199,84.686 206.899,84.686L206.901,84.676ZM217.949,79.378C217.865,79.321 217.682,79.308 217.413,79.308C215.9,79.308 214.968,80.481 214.968,82.288L214.968,86.145L212.918,86.145L212.918,77.385L214.954,77.385L214.954,78.883C215.378,77.866 216.424,77.203 217.553,77.203C217.78,77.203 217.907,77.217 217.949,77.26L217.949,79.378ZM219.279,86.146L219.277,73.641L221.327,73.641L221.327,80.691L224.619,77.385L227.149,77.385L223.349,81.2L227.434,86.156L224.905,86.156L221.782,82.27L221.33,82.67L221.33,86.146L219.279,86.146ZM235.218,85.426C234.313,85.991 233.14,86.359 231.841,86.359C228.944,86.359 227.12,84.395 227.12,81.753C227.12,79.125 228.944,77.189 231.514,77.189C234.072,77.189 235.712,79.111 235.712,81.711C235.712,81.994 235.712,82.163 235.654,82.431L229.171,82.431C229.326,83.646 230.331,84.607 231.969,84.607C233.071,84.607 234.145,84.211 235.205,83.434L235.205,85.426L235.218,85.426ZM233.692,80.876C233.564,79.676 232.716,78.856 231.474,78.856C230.231,78.856 229.312,79.831 229.171,80.876L233.692,80.876ZM240.927,84.476C241.266,84.476 241.619,84.406 241.886,84.208L241.886,86.045C241.547,86.243 241.025,86.37 240.319,86.37C238.553,86.37 237.52,85.296 237.52,83.47L237.52,79.17L235.966,79.17L239.569,74.578L239.569,77.418L241.886,77.418L241.886,79.17L239.571,79.17L239.571,83.098C239.571,84.098 239.995,84.498 240.927,84.498L240.927,84.476ZM251.835,81.776C251.835,84.348 249.856,86.368 247.172,86.368C244.486,86.368 242.509,84.348 242.509,81.776C242.509,79.204 244.486,77.184 247.172,77.184C249.842,77.184 251.835,79.204 251.835,81.776ZM244.558,81.776C244.558,83.274 245.703,84.476 247.158,84.476C248.628,84.476 249.758,83.276 249.758,81.776C249.758,80.276 248.612,79.076 247.158,79.076C245.703,79.076 244.558,80.276 244.558,81.776Z" style="fill:white;"/>
    </g>
</svg>
