<?xml version="1.0" encoding="UTF-8" standalone="no"?>
<!DOCTYPE svg PUBLIC "-//W3C//DTD SVG 1.1//EN" "http://www.w3.org/Graphics/SVG/1.1/DTD/svg11.dtd">
<svg width="100%" height="100%" viewBox="0 0 104 38" version="1.1" xmlns="http://www.w3.org/2000/svg" xmlns:xlink="http://www.w3.org/1999/xlink" xml:space="preserve" xmlns:serif="http://www.serif.com/" style="fill-rule:evenodd;clip-rule:evenodd;stroke-linejoin:round;stroke-miterlimit:2;">
    <g transform="matrix(1,0,0,1,-8.165,-11.186)">
        <path d="M40.398,16.414L30.781,11.186L30.781,48.814L40.398,41.154L40.398,16.414ZM26.3,16.75L26.3,40.596L18.556,43.979L18.556,14.46L26.3,16.75ZM8.193,18.37L8.165,39.73L14.092,38.164L14.092,19.32L8.193,18.37Z" style="fill:rgb(92,76,159);fill-rule:nonzero;"/>
    </g>
    <g transform="matrix(1,0,0,1,-8.165,-11.186)">
        <path d="M55.85,30.438L51.653,23.642L49.45,23.642L49.45,36.147L51.527,36.147L51.527,27.02L55.794,33.873L60.089,26.973L60.089,36.157L62.152,36.157L62.152,23.64L60,23.64L55.85,30.438ZM69.147,36.146L69.133,35.016C68.511,35.92 67.493,36.358 66.406,36.358C64.823,36.358 63.706,35.328 63.706,33.843C63.706,32.218 64.736,31.257 66.8,30.943L69.06,30.59L69.06,30.45C69.06,29.517 68.368,29.01 67.167,29.01C66.022,29.01 65.047,29.49 64.2,30.253L64.2,28.233C64.963,27.611 66.023,27.203 67.3,27.203C69.744,27.203 71.073,28.446 71.073,30.538L71.073,36.162L69.147,36.146ZM66.9,34.676C68.186,34.676 69.076,33.842 69.076,32.641L69.076,32.161L67.126,32.486C66.179,32.641 65.699,33.051 65.699,33.686C65.713,34.294 66.199,34.686 66.899,34.686M77.949,29.378C77.864,29.321 77.681,29.308 77.412,29.308C75.9,29.308 74.968,30.481 74.968,32.288L74.968,36.145L72.918,36.145L72.918,27.385L74.953,27.385L74.953,28.883C75.377,27.866 76.423,27.203 77.553,27.203C77.779,27.203 77.906,27.217 77.949,27.26L77.949,29.378ZM79.279,36.146L81.329,36.146L81.329,32.67L81.781,32.27L84.904,36.156L87.434,36.156L83.348,31.2L87.148,27.385L84.618,27.385L81.326,30.691L81.326,23.641L79.276,23.641L79.279,36.146ZM95.217,35.426C94.313,35.991 93.14,36.359 91.84,36.359C88.943,36.359 87.12,34.395 87.12,31.753C87.12,29.125 88.943,27.189 91.514,27.189C94.072,27.189 95.711,29.111 95.711,31.711C95.711,31.994 95.711,32.163 95.654,32.431L89.17,32.431C89.325,33.646 90.33,34.607 91.968,34.607C93.07,34.607 94.144,34.211 95.204,33.434L95.204,35.426L95.217,35.426ZM93.691,30.876C93.564,29.676 92.716,28.856 91.473,28.856C90.23,28.856 89.311,29.831 89.17,30.876L93.691,30.876ZM100.926,34.476C101.266,34.476 101.618,34.406 101.886,34.208L101.886,36.045C101.546,36.243 101.024,36.37 100.318,36.37C98.552,36.37 97.52,35.296 97.52,33.47L97.52,29.17L95.966,29.17L99.569,24.578L99.569,27.418L101.886,27.418L101.886,29.17L99.57,29.17L99.57,33.098C99.57,34.098 99.994,34.498 100.926,34.498M111.834,31.776C111.834,34.348 109.856,36.368 107.171,36.368C104.486,36.368 102.508,34.348 102.508,31.776C102.508,29.204 104.486,27.184 107.171,27.184C109.841,27.184 111.834,29.204 111.834,31.776M104.557,31.776C104.557,33.274 105.702,34.476 107.157,34.476C108.627,34.476 109.757,33.276 109.757,31.776C109.757,30.276 108.612,29.076 107.157,29.076C105.702,29.076 104.557,30.276 104.557,31.776" style="fill:rgb(31,22,70);fill-rule:nonzero;"/>
    </g>
</svg>
