<?xml version="1.0" encoding="UTF-8" standalone="no"?>
<!DOCTYPE svg PUBLIC "-//W3C//DTD SVG 1.1//EN" "http://www.w3.org/Graphics/SVG/1.1/DTD/svg11.dtd">
<svg width="100%" height="100%" viewBox="0 0 139 21" version="1.1" xmlns="http://www.w3.org/2000/svg" xmlns:xlink="http://www.w3.org/1999/xlink" xml:space="preserve" xmlns:serif="http://www.serif.com/" style="fill-rule:evenodd;clip-rule:evenodd;stroke-linejoin:round;stroke-miterlimit:2;">
    <g transform="matrix(1,0,0,1,-50.6,-58.19497)">
        <g>
            <g>
                <path d="M50.6,58.5L55,58.5L55,61.6C55.9,59.5 57.3,58.1 59.9,58.2L59.9,62.8L59.7,62.8C56.8,62.8 55,64.6 55,68.2L55,73.9L50.6,73.9L50.6,58.5Z" style="fill-rule:nonzero;"/>
                <path d="M60.2,66.4C60.2,61.9 63.3,58.3 67.8,58.3C73,58.3 75.3,62.3 75.3,66.7C75.3,67 75.3,67.5 75.2,67.9L64.5,67.9C64.9,69.9 66.3,70.9 68.3,70.9C69.8,70.9 70.8,70.4 72,69.3L74.5,71.5C73.1,73.3 71,74.4 68.2,74.4C63.6,74.4 60.2,71.2 60.2,66.4ZM71.1,65.1C70.8,63.1 69.7,61.8 67.8,61.8C66,61.8 64.8,63.1 64.5,65.1L71.1,65.1Z" style="fill-rule:nonzero;"/>
                <path d="M78.2,69C79.4,70.2 80.9,71.1 82.6,71.1C83.7,71.1 85.3,70.8 85.3,69.6C85.3,69.1 85,68.9 84.7,68.7C84,68.4 83,68.3 82.1,68.1C81.4,68 80.7,67.8 80.1,67.6C79.2,67.3 78.3,67 77.6,66.3C76.9,65.6 76.5,64.6 76.5,63.5C76.5,61 78.6,58.5 82.8,58.5C86.3,58.5 88.5,60 89.5,60.7L86.8,63.2C85.4,62.1 84.1,61.7 83,61.7C81.3,61.7 80.9,62.4 80.9,62.8C80.9,63.7 81.8,63.8 83.3,64.1C86.3,64.6 89.8,65.5 89.8,69C89.8,72.5 86.2,74.3 82.7,74.3C78.5,74.3 76.4,72.3 75.4,71.4L78.2,69Z" style="fill-rule:nonzero;"/>
                <path d="M91,58.6L95.4,58.6L95.4,60.8C96.5,59.4 97.9,58.3 100.2,58.3C103.8,58.3 107.2,61.1 107.2,66.3L107.2,66.4C107.2,71.5 103.8,74.4 100.2,74.4C97.9,74.4 96.4,73.3 95.4,72.1L95.4,78.7L91,78.7L91,58.6ZM102.8,66.4C102.8,63.8 101.1,62.1 99,62.1C97,62.1 95.3,63.8 95.3,66.4L95.3,66.5C95.3,69.1 97,70.8 99,70.8C101.1,70.6 102.8,69 102.8,66.4Z" style="fill-rule:nonzero;"/>
                <path d="M108.3,66.4C108.3,61.9 111.9,58.3 116.7,58.3C121.5,58.3 125,61.8 125,66.3L125,66.4C125,70.8 121.4,74.4 116.6,74.4C111.8,74.4 108.3,70.9 108.3,66.4ZM120.6,66.4C120.6,64.1 119,62.1 116.5,62.1C114,62.1 112.5,64 112.5,66.3L112.5,66.4C112.5,68.7 114.1,70.7 116.6,70.7C119.1,70.6 120.6,68.7 120.6,66.4Z" style="fill-rule:nonzero;"/>
                <path d="M126.1,58.6L130.5,58.6L130.5,60.8C131.5,59.5 132.8,58.3 135,58.3C138.3,58.3 140.2,60.5 140.2,64L140.2,74L135.8,74L135.8,65.4C135.8,63.3 134.8,62.3 133.2,62.3C131.5,62.3 130.5,63.4 130.5,65.4L130.5,74L126.1,74L126.1,58.6Z" style="fill-rule:nonzero;"/>
                <path d="M144.1,69C145.3,70.2 146.8,71.1 148.5,71.1C149.6,71.1 151.2,70.8 151.2,69.6C151.2,69.1 150.9,68.9 150.6,68.7C149.9,68.4 148.9,68.3 148,68.1C147.3,68 146.6,67.8 146,67.6C145.1,67.3 144.2,67 143.5,66.3C142.8,65.6 142.4,64.6 142.4,63.5C142.4,61 144.5,58.5 148.7,58.5C152.2,58.5 154.4,60 155.4,60.7L152.7,63.2C151.3,62.1 150,61.7 148.9,61.7C147.2,61.7 146.8,62.4 146.8,62.8C146.8,63.7 147.8,63.8 149.2,64.1C152.2,64.6 155.7,65.5 155.7,69C155.7,72.5 152.1,74.3 148.6,74.3C144.4,74.3 142.3,72.3 141.3,71.4L144.1,69Z" style="fill-rule:nonzero;"/>
                <path d="M156.7,77.7L158.2,74.5C158.8,74.8 159.5,75.1 160.1,75.1C160.8,75.1 161.2,74.9 161.6,74.1L155.6,58.6L160.2,58.6L163.7,69.1L167.1,58.6L171.6,58.6L165.7,74.4C164.5,77.5 163.2,78.7 160.6,78.7C159,78.7 157.8,78.3 156.7,77.7Z" style="fill-rule:nonzero;"/>
                <path d="M173,69C174.2,70.2 175.7,71.1 177.4,71.1C178.5,71.1 180.1,70.8 180.1,69.6C180.1,69.1 179.8,68.9 179.5,68.7C178.8,68.4 177.8,68.3 176.9,68.1C176.2,68 175.5,67.8 174.9,67.6C174,67.3 173.1,67 172.4,66.3C171.7,65.6 171.3,64.6 171.3,63.5C171.3,61 173.4,58.5 177.6,58.5C181.1,58.5 183.3,60 184.3,60.7L181.6,63.2C180.2,62.1 178.9,61.7 177.8,61.7C176.1,61.7 175.7,62.4 175.7,62.8C175.7,63.7 176.6,63.8 178.1,64.1C181.1,64.6 184.6,65.5 184.6,69C184.6,72.5 181,74.3 177.5,74.3C173.3,74.3 171.2,72.3 170.2,71.4L173,69Z" style="fill-rule:nonzero;"/>
            </g>
        </g>
        <g>
            <g>
                <g>
                    <path d="M186.8,59.7L187.5,59.7C187.8,59.7 188,59.7 188.2,59.9C188.3,60 188.4,60.2 188.4,60.4C188.4,60.8 188.1,60.9 188,61L188.5,61.9L188,61.9L187.6,61.1L187.2,61.1L187.2,61.9L186.8,61.9L186.8,59.7ZM187.2,60.1L187.2,60.8L187.6,60.8C187.7,60.8 188,60.8 188,60.5C188,60.5 188,60.3 187.8,60.2L187.4,60.2C187.4,60.1 187.2,60.1 187.2,60.1Z" style="fill-rule:nonzero;"/>
                </g>
            </g>
            <path d="M189.4,60.8C189.4,61.8 188.5,62.7 187.5,62.7C186.5,62.7 185.6,61.8 185.6,60.8C185.6,59.8 186.4,58.9 187.5,58.9C188.6,58.9 189.4,59.7 189.4,60.8ZM187.5,59.2C186.6,59.2 185.9,59.9 185.9,60.8C185.9,61.7 186.6,62.4 187.5,62.4C188.4,62.4 189.1,61.7 189.1,60.8C189.1,59.9 188.4,59.2 187.5,59.2Z" style="fill-rule:nonzero;"/>
        </g>
    </g>
</svg>
