<?xml version="1.0" encoding="utf-8"?>
<!-- Generator: Adobe Illustrator 26.0.3, SVG Export Plug-In . SVG Version: 6.00 Build 0)  -->
<svg version="1.0" id="Layer_1" xmlns="http://www.w3.org/2000/svg" xmlns:xlink="http://www.w3.org/1999/xlink" x="0px" y="0px"
	 viewBox="0 0 400 209" style="enable-background:new 0 0 400 209;" xml:space="preserve">
<style type="text/css">
	.st0{fill:#FF0000;}
</style>
<g>
	<path class="st0" d="M175,121.2c-7.1-14.7-17.2-21.2-22.8-23.2c11.9-5.3,18.1-12.4,22.8-26.6V121.2z M315.6,4.6l-28.7,116.9
		L258.1,4.6h-83.2v43.2C164.7,10,127.7,0.5,94.5,0C54.1-0.5,9.3,17,7.8,70.4h55.9c0-16.1,14.8-25.4,28.7-25.1
		c17.1-0.1,25,7.2,25.4,18.5c-0.6,9.9-6.4,16.8-25.2,16.8H73.7v38.8h17.1c9.7,0,23.2,5.3,23.7,19.1c0.6,16.5-10.8,23.7-24.9,23.8
		C64.5,161.3,58,142,58,125.4H0c0.2,11.2-0.1,84.1,90.8,83.6c43.6,0.4,75.3-17.9,84.2-43.2v38.7h55.9V78.5l30.9,126.1h50l31-125.9
		v126H400V4.6H315.6z"/>
</g>
</svg>
