<?xml version="1.0" encoding="UTF-8" standalone="no"?>
<!DOCTYPE svg PUBLIC "-//W3C//DTD SVG 1.1//EN" "http://www.w3.org/Graphics/SVG/1.1/DTD/svg11.dtd">
<svg width="100%" height="100%" viewBox="0 0 2005 318" version="1.1" xmlns="http://www.w3.org/2000/svg" xmlns:xlink="http://www.w3.org/1999/xlink" xml:space="preserve" xmlns:serif="http://www.serif.com/" style="fill-rule:evenodd;clip-rule:evenodd;stroke-linejoin:round;stroke-miterlimit:2;">
    <g transform="matrix(1,0,0,1,477.690633,-18.281723)">
        <text x="170.678px" y="132.876px" style="font-family:'3MCircularTT-Bold', '3M Circular TT', sans-serif;font-weight:700;font-size:155.699px;">C<tspan x="287.141px 327.778px 414.191px 503.251px 588.574px 629.212px 711.732px " y="132.876px 132.876px 132.876px 132.876px 132.876px 132.876px 132.876px ">iencia.</tspan></text>
        <text x="170.678px" y="306.325px" style="font-family:'3MCircularTT-Bold', '3M Circular TT', sans-serif;font-weight:700;font-size:155.699px;">A<tspan x="281.691px 376.045px 416.682px 457.32px 542.643px 625.164px 719.206px 801.726px 837.382px 919.902px 955.557px 996.195px 1078.715px 1110.322px 1195.334px 1235.971px 1330.014px 1412.534px " y="306.325px 306.325px 306.325px 306.325px 306.325px 306.325px 306.325px 306.325px 306.325px 306.325px 306.325px 306.325px 306.325px 306.325px 306.325px 306.325px 306.325px 306.325px ">plicada a la vida.</tspan></text>
        <g transform="matrix(49.540417,0,0,49.540417,1530.581785,229.139104)">
        </g>
        <text x="1453.051px" y="229.139px" style="font-family:'3MCircularTT-Bold', '3M Circular TT', sans-serif;font-weight:700;font-size:49.54px;">T<tspan x="1483.32px " y="229.139px ">M</tspan></text>
    </g>
    <g transform="matrix(4.166667,0,0,4.166667,448.695833,308.523929)">
        <path d="M0,-68.158L-9.804,-28.282L-19.631,-68.158L-48.022,-68.158L-48.022,-53.431C-51.473,-66.318 -64.127,-69.55 -75.437,-69.732C-89.225,-69.913 -104.502,-63.935 -105.035,-45.704L-85.96,-45.704C-85.96,-51.213 -80.924,-54.369 -76.163,-54.285C-70.321,-54.331 -67.631,-51.841 -67.498,-47.959C-67.699,-44.584 -69.69,-42.237 -76.114,-42.237L-82.531,-42.237L-82.531,-29.009L-76.708,-29.009C-73.401,-29.009 -68.796,-27.207 -68.615,-22.5C-68.395,-16.886 -72.3,-14.418 -77.101,-14.373C-85.677,-14.683 -87.89,-21.274 -87.89,-26.943L-107.687,-26.943C-107.604,-23.128 -107.725,1.755 -76.705,1.572C-61.841,1.709 -51.026,-4.542 -47.973,-13.154L-47.973,0.052L-28.883,0.052L-28.883,-42.964L-18.326,0.052L-1.264,0.052L9.327,-42.919L9.327,0.09L28.807,0.09L28.807,-68.158L0,-68.158ZM-47.958,-28.381C-50.391,-33.406 -53.816,-35.608 -55.742,-36.304C-51.696,-38.098 -49.581,-40.543 -47.958,-45.394L-47.958,-28.381Z" style="fill:rgb(236,29,48);fill-rule:nonzero;"/>
    </g>
</svg>
