<?xml version="1.0" encoding="UTF-8" standalone="no"?>
<!DOCTYPE svg PUBLIC "-//W3C//DTD SVG 1.1//EN" "http://www.w3.org/Graphics/SVG/1.1/DTD/svg11.dtd">
<svg width="100%" height="100%" viewBox="0 0 107 62" version="1.1" xmlns="http://www.w3.org/2000/svg" xmlns:xlink="http://www.w3.org/1999/xlink" xml:space="preserve" xmlns:serif="http://www.serif.com/" style="fill-rule:evenodd;clip-rule:evenodd;stroke-linejoin:round;stroke-miterlimit:2;">
    <g transform="matrix(1,0,0,1,-20.6,-15.5)">
        <path d="M75.7,34.6L75.7,15.5L81.7,15.5L81.7,34.2C81.7,36.1 82.1,36.6 83.2,36.6C84.3,36.6 84.6,36.1 84.6,34.2L84.6,15.5L90.7,15.5L90.7,34.6C90.7,40.2 87.9,42.6 83.2,42.6C78.3,42.5 75.7,40.1 75.7,34.6ZM99.7,42.1L93.7,42.1L93.7,15.5L101.2,15.5C106.6,15.5 108.7,17.6 108.7,22.1L108.7,26.8C108.7,31.3 106.5,33.9 101.2,33.9L99.7,33.9L99.7,42.1ZM99.7,28.6L100.9,28.6C102.1,28.6 102.7,27.9 102.7,26.6L102.7,22.4C102.7,21.1 102.1,20.5 101,20.5L99.7,20.5L99.7,28.6ZM111.4,42.1L111.4,15.5L116.8,15.5L121.5,28.5L121.9,30L121.8,27.6L121.8,15.5L127.3,15.5L127.3,42.1L122,42.1L117.2,29.1L116.8,27.6L117,30.2L117,42.1L111.4,42.1ZM43.1,15.5L43.1,77.4L34.1,77.4L34.1,32L33.8,32.2C29.8,36 25.4,39.3 20.6,42.1L20.6,31.9C23.1,30.2 25.5,28.3 27.7,26.2C31.1,23 34.2,19.4 36.9,15.5L43.1,15.5ZM69,31.9L69,42.1C64.2,39.3 59.8,36 55.8,32.2L55.5,32L55.5,77.4L46.5,77.4L46.5,15.5L52.7,15.5C55.4,19.4 58.5,23 61.9,26.2C64.2,28.3 66.5,30.2 69,31.9ZM76.8,54.4L76.8,49.4L78,49.4L78,54.4C78,55.1 78.2,55.4 78.6,55.4C79,55.4 79.2,55.1 79.2,54.4L79.2,49.4L80.5,49.4L80.5,54.4C80.5,55.9 79.8,56.5 78.6,56.5C77.4,56.5 76.8,55.8 76.8,54.4ZM81.6,56.4L81.6,49.3L82.7,49.3L84.3,53.3L84.5,54.1L84.4,53.1L84.4,49.3L85.6,49.3L85.6,56.4L84.5,56.4L82.8,52.4L82.6,51.6L82.7,52.7L82.7,56.5L81.6,56.4ZM86.5,55.2L87.3,55.2L87.3,50.5L86.5,50.5L86.5,49.3L89.4,49.3L89.4,50.5L88.6,50.5L88.6,55.2L89.4,55.2L89.4,56.4L86.5,56.4L86.5,55.2ZM89.9,49.3L91.2,49.3L92,53.5L92.1,54.5L92.2,53.5L93.1,49.3L94.4,49.3L92.9,56.4L91.6,56.4L89.9,49.3ZM94.9,56.5L94.9,49.3L98.2,49.3L98.2,50.5L96.2,50.5L96.2,52.3L98,52.3L98,53.5L96.2,53.5L96.2,55.3L98.3,55.3L98.3,56.5L94.9,56.5ZM100.3,56.4L99.1,56.4L99.1,49.3L101,49.3C102.3,49.3 102.9,49.8 102.9,51L102.9,51.8C103,52.3 102.7,52.9 102.1,53C102.6,53.2 102.8,53.5 102.8,54.2L102.8,55.8C102.8,56 102.9,56.1 103,56.3L101.7,56.3C101.6,56.2 101.5,56 101.6,55.8L101.6,54.3C101.6,53.8 101.5,53.6 100.9,53.6L100.4,53.6L100.3,56.4ZM100.3,52.6L100.9,52.6C101.4,52.6 101.6,52.4 101.6,51.9L101.6,51.1C101.6,50.6 101.4,50.4 100.9,50.4L100.3,50.4L100.3,52.6ZM103.6,54.7L103.6,53.7L104.9,53.7L104.9,54.6C104.9,55.1 105.1,55.3 105.6,55.3C106.1,55.3 106.2,55 106.2,54.6L106.2,54.2C106.2,54 106.1,53.8 106,53.7C105.7,53.4 105.4,53.2 105,53C104.8,52.9 104.5,52.7 104.3,52.6C103.8,52.3 103.5,51.7 103.5,51.1L103.5,51C103.5,49.9 104.1,49.2 105.4,49.2C106.7,49.2 107.2,49.8 107.2,50.9L107.2,51.7L106,51.7L106,51C106,50.5 105.8,50.3 105.4,50.3C105,50.3 104.8,50.6 104.8,51L104.8,51.2C104.8,51.4 104.8,51.5 105,51.7C105.3,52 105.6,52.2 106,52.3C106.2,52.4 106.4,52.6 106.7,52.7C107.2,53 107.5,53.6 107.5,54.2L107.5,54.7C107.6,55.6 106.9,56.4 106,56.5L105.6,56.5C104.1,56.5 103.6,55.8 103.6,54.7ZM108,55.2L108.8,55.2L108.8,50.5L108,50.5L108,49.3L110.9,49.3L110.9,50.5L110.1,50.5L110.1,55.2L110.9,55.2L110.9,56.4L108,56.4L108,55.2ZM113.5,49.3C113.9,49.3 114.3,49.4 114.6,49.5C115.3,49.9 115.7,50.6 115.6,51.4L115.6,54.3C115.6,54.7 115.5,55.1 115.3,55.5C114.9,56.1 114.2,56.5 113.5,56.4L111.7,56.4L111.7,49.3L113.5,49.3ZM113,55.3L113.5,55.3C114.1,55.3 114.4,55 114.4,54.2L114.4,51.5C114.4,50.7 114.1,50.4 113.5,50.4L113,50.4L113,55.3ZM117.5,55.3L117.3,56.3L116,56.3L117.6,49.2L118.9,49.2L120.5,56.3L119.2,56.3L119,55.3L117.5,55.3ZM118.8,54.2L118.3,51.9L118.2,50.9L118.1,51.9L117.7,54.2L118.8,54.2ZM122.9,49.3C123.3,49.3 123.6,49.4 124,49.5C124.7,49.9 125.1,50.6 125,51.4L125,54.3C125,54.7 124.9,55.1 124.7,55.5C124.3,56.1 123.6,56.5 122.9,56.4L121.1,56.4L121.1,49.3L122.9,49.3ZM122.4,55.3L122.9,55.3C123.4,55.3 123.8,55 123.8,54.2L123.8,51.5C123.8,50.7 123.5,50.4 122.9,50.4L122.4,50.4L122.4,55.3ZM78,66.9L76.8,66.9L76.8,59.8L78.7,59.8C80.1,59.8 80.7,60.3 80.7,61.6L80.7,62.8C80.7,64 80.1,64.7 78.8,64.7L78,64.7L78,66.9ZM78,63.6L78.6,63.6C79.1,63.6 79.3,63.3 79.3,62.8L79.3,61.7C79.3,61.2 79.1,61 78.6,61L78,61L78,63.6ZM82.6,66.9L81.4,66.9L81.4,59.8L83.3,59.8C84.6,59.8 85.2,60.3 85.2,61.5L85.2,62.3C85.3,62.8 85,63.4 84.4,63.5C84.9,63.7 85.1,64 85.1,64.7L85.1,66.3C85.1,66.5 85.2,66.6 85.3,66.8L84,66.8C83.9,66.7 83.8,66.5 83.9,66.3L83.9,64.8C83.9,64.3 83.8,64.1 83.2,64.1L82.7,64.1L82.6,66.9ZM82.6,63.1L83.2,63.1C83.7,63.1 83.9,62.9 83.9,62.4L83.9,61.6C83.9,61.1 83.7,60.9 83.2,60.9L82.6,60.9L82.6,63.1ZM85.9,65.7L86.7,65.7L86.7,61L85.9,61L85.9,59.8L88.8,59.8L88.8,61L88,61L88,65.7L88.8,65.7L88.8,66.9L85.9,66.9L85.9,65.7ZM89.3,59.8L90.6,59.8L91.4,64L91.5,65L91.6,64L92.4,59.8L93.7,59.8L92.2,66.9L90.9,66.9L89.3,59.8ZM94.8,65.8L94.6,66.8L93.3,66.8L94.9,59.7L96.2,59.7L97.8,66.8L96.5,66.8L96.3,65.8L94.8,65.8ZM96.1,64.7L95.6,62.3L95.5,61.3L95.4,62.3L95,64.7L96.1,64.7ZM100.2,59.8C100.6,59.8 100.9,59.9 101.3,60C102,60.4 102.4,61.1 102.3,61.9L102.3,64.8C102.3,65.2 102.2,65.6 102,66C101.6,66.6 100.9,67 100.2,66.9L98.4,66.9L98.4,59.8L100.2,59.8ZM99.7,65.8L100.2,65.8C100.7,65.8 101,65.5 101,64.7L101,62C101,61.2 100.7,60.9 100.1,60.9L99.6,60.9L99.7,65.8ZM104.2,65.8L104,66.8L102.7,66.8L104.3,59.7L105.6,59.7L107.2,66.8L105.9,66.8L105.7,65.8L104.2,65.8ZM105.5,64.7L105,62.3L104.9,61.3L104.8,62.3L104.4,64.7L105.5,64.7ZM78.6,70.3C79,70.3 79.3,70.4 79.7,70.5C80.4,70.8 80.8,71.6 80.7,72.4L80.7,75.3C80.7,75.7 80.6,76.1 80.4,76.5C80,77.1 79.3,77.5 78.6,77.4L76.8,77.4L76.8,70.3L78.6,70.3ZM78.1,76.3L78.6,76.3C79.1,76.3 79.4,76 79.4,75.2L79.4,72.5C79.4,71.7 79.1,71.4 78.5,71.4L78,71.4L78.1,76.3ZM81.6,77.4L81.6,70.3L84.9,70.3L84.9,71.5L82.9,71.5L82.9,73.3L84.7,73.3L84.7,74.5L82.9,74.5L82.9,76.3L85,76.3L85,77.5L81.6,77.4ZM85.8,70.3L87.1,70.3L87.1,76.1L89,76.1L89,77.4L85.8,77.4L85.8,70.3ZM91.9,77.4L91.9,70.3L93,70.3L94.6,74.3L94.8,75.1L94.7,74.1L94.7,70.3L96,70.3L96,77.4L94.9,77.4L93.2,73.4L93,72.5L93.1,73.5L93.1,77.3L91.9,77.4ZM96.9,75.3L96.9,72.3C96.9,71.2 97.8,70.3 98.9,70.3C100,70.3 100.9,71.2 100.9,72.3L100.9,75.3C101.1,76.3 100.3,77.3 99.3,77.4L98.9,77.4C97.7,77.5 96.9,76.8 96.9,75.3ZM99.7,75.2L99.7,72.4C99.7,71.7 99.5,71.3 99,71.3C98.5,71.3 98.3,71.6 98.3,72.4L98.3,75.2C98.3,75.9 98.5,76.3 99,76.3C99.5,76.3 99.7,76 99.7,75.2ZM103.1,77.4L101.9,77.4L101.9,70.3L103.8,70.3C105.1,70.3 105.7,70.8 105.7,72L105.7,72.8C105.8,73.3 105.5,73.9 104.9,74C105.4,74.2 105.6,74.5 105.6,75.2L105.6,76.8C105.6,77 105.7,77.1 105.8,77.3L104.5,77.3C104.4,77.2 104.3,77 104.4,76.8L104.4,75.3C104.4,74.8 104.3,74.6 103.7,74.6L103.2,74.6L103.1,77.4ZM103.1,73.6L103.7,73.6C104.2,73.6 104.4,73.4 104.4,72.9L104.4,72.1C104.4,71.6 104.2,71.4 103.7,71.4L103.1,71.4L103.1,73.6ZM108.7,77.4L107.4,77.4L107.4,71.5L106.2,71.5L106.2,70.3L109.8,70.3L109.8,71.5L108.6,71.5L108.7,77.4ZM110.6,77.4L110.6,70.3L113.9,70.3L113.9,71.5L111.9,71.5L111.9,73.3L113.7,73.3L113.7,74.5L111.9,74.5L111.9,76.3L114,76.3L114,77.5L110.6,77.4Z" style="fill:white;"/>
    </g>
</svg>
