<?xml version="1.0" encoding="UTF-8" standalone="no"?>
<!DOCTYPE svg PUBLIC "-//W3C//DTD SVG 1.1//EN" "http://www.w3.org/Graphics/SVG/1.1/DTD/svg11.dtd">
<svg width="100%" height="100%" viewBox="0 0 120 30" version="1.1" xmlns="http://www.w3.org/2000/svg" xmlns:xlink="http://www.w3.org/1999/xlink" xml:space="preserve" xmlns:serif="http://www.serif.com/" style="fill-rule:evenodd;clip-rule:evenodd;stroke-linejoin:round;stroke-miterlimit:2;">
    <g transform="matrix(1,0,0,1,0,-0.53479)">
        <path d="M32.442,0.535L0,0.535L0,5.516L30.822,5.516C31.709,5.52 32.428,6.242 32.428,7.126L32.428,23.87L32.421,23.881C32.414,24.765 31.695,25.48 30.811,25.48L6.591,25.48C5.704,25.48 4.981,24.762 4.981,23.87L4.981,17.103C4.981,16.215 5.707,15.496 6.591,15.496L27.433,15.496L27.433,10.515L4.971,10.515C2.226,10.515 0,12.735 0,15.479L0,25.491C0,28.235 2.223,30.462 4.971,30.462L32.442,30.462C35.19,30.462 37.41,28.235 37.41,25.491L37.41,5.502C37.41,2.758 35.19,0.535 32.442,0.535Z" style="fill:white;fill-rule:nonzero;"/>
    </g>
    <g transform="matrix(1,0,0,1,0,-0.53479)">
        <path d="M55.947,7.598L59.843,19.255C60.308,20.675 60.632,21.006 61.446,21.006L62.242,21.006L62.242,23.057L53.731,23.057L53.731,21.006L54.425,21.006C55.126,21.006 55.711,20.911 55.711,20.654C55.711,20.418 55.683,20.164 55.595,19.816L55.105,18.135L50.346,18.135L50.067,19.069C49.81,19.886 49.718,20.235 49.718,20.559C49.718,20.936 50.536,21.006 51.166,21.006L51.839,21.006L51.839,23.057L44.987,23.057L44.987,21.006L45.78,21.006C46.597,21.006 46.921,20.679 47.39,19.255L51.283,7.598L55.944,7.598M51.015,16.088L54.404,16.088L52.724,11.072L52.678,11.072L51.015,16.088Z" style="fill:white;fill-rule:nonzero;"/>
    </g>
    <g transform="matrix(1,0,0,1,0,-0.53479)">
        <path d="M63.595,10.466C63.595,9.811 63.433,9.462 62.757,9.462L61.686,9.462L61.686,7.598L67.47,7.598L67.47,13.404C68.33,12.421 69.426,11.797 70.475,11.797C73.974,11.797 75.277,14.528 75.277,17.603C75.277,20.679 73.974,23.405 70.475,23.405C69.006,23.405 67.703,22.895 66.886,21.612L66.213,23.06L63.599,23.06L63.599,10.466M67.474,17.6C67.474,19.978 68.009,21.401 69.313,21.401C70.616,21.401 71.155,19.978 71.155,17.6C71.155,15.222 70.62,13.802 69.313,13.802C68.006,13.802 67.474,15.222 67.474,17.6Z" style="fill:white;fill-rule:nonzero;"/>
    </g>
    <g transform="matrix(1,0,0,1,0,-0.53479)">
        <path d="M76.676,10.466C76.676,9.811 76.51,9.462 75.837,9.462L74.763,9.462L74.763,7.598L80.547,7.598L80.547,13.404C81.41,12.421 82.506,11.797 83.556,11.797C87.05,11.797 88.358,14.528 88.358,17.603C88.358,20.679 87.05,23.405 83.556,23.405C82.083,23.405 80.78,22.895 79.963,21.612L79.29,23.06L76.676,23.06L76.676,10.466ZM80.547,17.6C80.547,19.978 81.083,21.401 82.386,21.401C83.69,21.401 84.229,19.978 84.229,17.6C84.229,15.222 83.693,13.802 82.386,13.802C81.079,13.802 80.547,15.222 80.547,17.6Z" style="fill:white;fill-rule:nonzero;"/>
    </g>
    <g transform="matrix(1,0,0,1,0,-0.53479)">
        <path d="M101.509,17.6C101.509,21.33 98.965,23.402 95.492,23.402C92.018,23.402 89.474,21.33 89.474,17.6C89.474,13.869 92.018,11.794 95.492,11.794C98.965,11.794 101.509,13.869 101.509,17.6ZM93.603,17.6C93.603,20.351 94.093,21.538 95.492,21.538C96.89,21.538 97.38,20.348 97.38,17.6C97.38,14.852 96.89,13.661 95.492,13.661C94.093,13.661 93.603,14.848 93.603,17.6Z" style="fill:white;fill-rule:nonzero;"/>
    </g>
    <g transform="matrix(1,0,0,1,0,-0.53479)">
        <path d="M118.133,17.786L118.133,19.608C118.133,20.675 117.9,21.309 117.013,21.309C116.474,21.309 116.22,20.911 116.22,20.422L116.22,14.006L119.084,14.006L119.084,12.146L116.22,12.146L116.22,7.81L113.913,7.81C113.722,9.744 113.12,12.146 110.788,12.146L107.149,12.146L107.149,7.81L104.841,7.81C104.651,9.744 104.048,12.146 101.716,12.146L101.716,14.006L103.28,14.006L103.28,19.861C103.28,22.239 104.609,23.402 107.008,23.402C109.808,23.402 110.922,22.148 110.922,19.861L110.922,17.783L109.062,17.783L109.062,19.604C109.062,20.672 108.825,21.306 107.938,21.306C107.402,21.306 107.145,20.908 107.145,20.418L107.145,14.003L112.348,14.003L112.348,19.858C112.348,22.236 113.673,23.398 116.076,23.398C118.876,23.398 119.993,22.144 119.993,19.858L119.993,17.779L118.126,17.779" style="fill:white;fill-rule:nonzero;"/>
    </g>
</svg>
