<?xml version="1.0" encoding="UTF-8" standalone="no"?>
<!DOCTYPE svg PUBLIC "-//W3C//DTD SVG 1.1//EN" "http://www.w3.org/Graphics/SVG/1.1/DTD/svg11.dtd">
<svg width="100%" height="100%" viewBox="0 0 2501 857" version="1.1" xmlns="http://www.w3.org/2000/svg" xmlns:xlink="http://www.w3.org/1999/xlink" xml:space="preserve" xmlns:serif="http://www.serif.com/" style="fill-rule:evenodd;clip-rule:evenodd;stroke-linejoin:round;stroke-miterlimit:2;">
    <g transform="matrix(4.166667,0,0,4.166667,656.096667,198.625)">
        <path d="M0,-47.67C-31.347,-47.669 -58.231,-27.895 -68.544,0C-54.674,-15.541 -34.48,-25.303 -12.077,-25.303C-11.62,-25.303 -11.16,-25.299 -10.7,-25.29C0.357,-25.091 10.816,-22.536 20.21,-18.109L20.21,-44.856C14.205,-46.571 7.881,-47.541 1.339,-47.658C0.891,-47.666 0.445,-47.67 0,-47.67" style="fill:rgb(190,152,190);fill-rule:nonzero;"/>
    </g>
    <g transform="matrix(4.166667,0,0,4.166667,266.949167,405.723333)">
        <path d="M0,-54.541C-8.807,-54.541 -17.2,-52.821 -24.85,-49.704L-24.85,-25.934C-5.161,-26.942 12.488,-35.894 24.86,-49.696C22.093,-42.253 18.074,-35.422 13.07,-29.448C13.949,-29.491 14.834,-29.521 15.723,-29.521L15.869,-29.521C18.93,-29.514 21.927,-29.252 24.851,-28.755C41.982,-25.859 56.389,-14.942 64.066,0C63.88,-1.308 63.654,-2.605 63.389,-3.887C63.387,-3.895 63.385,-3.907 63.383,-3.916L63.382,-3.917C61.326,-13.819 56.909,-22.879 50.729,-30.515C50.729,-30.515 50.728,-30.518 50.726,-30.519C50.713,-30.535 50.701,-30.55 50.688,-30.567C50.673,-30.585 50.659,-30.603 50.645,-30.62L50.644,-30.62C43.88,-38.941 35.022,-45.557 24.851,-49.704C17.198,-52.821 8.803,-54.541 0,-54.541" style="fill:rgb(190,152,190);fill-rule:nonzero;"/>
    </g>
    <g transform="matrix(4.166667,0,0,4.166667,142.454167,35.374167)">
        <path d="M0,63.042C1.692,63.073 3.366,63.036 5.029,62.95L5.029,39.178C12.679,36.062 21.071,34.341 29.879,34.341C38.681,34.341 47.077,36.062 54.73,39.178L54.73,39.181L54.73,-0.031L5.029,-0.031L5.029,39.183L-34.189,39.183L-34.189,53.699C-24.089,59.446 -12.443,62.821 0,63.042" style="fill:white;fill-rule:nonzero;"/>
    </g>
    <g transform="matrix(4.166667,0,0,4.166667,370.5225,540.007917)">
        <path d="M0,-81.929C20.746,-73.469 36.024,-54.737 39.207,-32.228C31.531,-47.171 17.125,-58.087 -0.006,-60.983C-2.975,-61.486 -6.024,-61.75 -9.134,-61.75C-10.025,-61.75 -10.911,-61.719 -11.79,-61.676C-24.766,-46.185 -44.404,-36.469 -66.212,-36.857C-74.193,-36.998 -81.836,-38.486 -88.924,-41.088L-88.924,-32.225L-49.71,-32.225L-49.71,-2.423C-38.564,0 -26.697,-0.126 -14.928,-3.3C-9.65,-4.723 -4.66,-6.684 -0.006,-9.115L-0.006,-32.225L39.21,-32.225L39.21,-81.929L0,-81.929Z" style="fill:white;fill-rule:nonzero;"/>
    </g>
    <g transform="matrix(4.166667,0,0,4.166667,1.160417,623.06625)">
        <path d="M0,-44.812C11.708,-17.422 39.094,0 68.888,0C75.403,0 82.035,-0.833 88.641,-2.578L88.641,-29.048C83.987,-26.619 78.998,-24.656 73.72,-23.234C70.359,-22.328 66.991,-21.67 63.634,-21.249C60.57,-20.863 57.518,-20.676 54.488,-20.676C33.576,-20.676 13.798,-29.65 0,-44.812" style="fill:rgb(190,152,190);fill-rule:nonzero;"/>
    </g>
    <g transform="matrix(-1.240584,-3.977696,-3.977696,1.240584,287.379202,473.38453)">
        <path d="M-12.503,-16.996C-13.436,-11.828 -13.822,-6.483 -13.608,-1.021C-13.473,2.456 -13.1,5.867 -12.503,9.197C-13.1,5.867 -13.475,2.457 -13.61,-1.02C-13.824,-6.482 -13.436,-11.83 -12.503,-16.996" style="fill:white;fill-rule:nonzero;"/>
    </g>
    <g transform="matrix(4.166667,0,0,4.166667,2061.792083,430.651667)">
        <path d="M0,37.469L-13.056,18.321C-5.655,18.151 -0.035,10.837 -2.819,2.993C-4.799,-2.59 -10.341,-6.12 -16.264,-6.12L-44.174,-6.12L-44.174,-3.813L-41.34,-3.813C-39.083,-3.813 -37.252,-1.98 -37.252,0.279L-37.252,36.455C-37.252,39.108 -39.421,41.279 -42.076,41.279L-44.174,41.279L-44.174,43.589L-20.644,43.589L-20.644,41.279L-22.286,41.279C-25.714,41.279 -28.495,38.502 -28.495,35.072L-28.495,20.489L-25.648,20.489C-23.345,20.489 -21.234,21.743 -20.137,23.759L-14.298,34.631C-11.287,40.153 -5.499,43.589 0.792,43.589L7.37,43.589L7.169,41.275C4.307,41.243 1.632,39.828 0,37.469M-21.166,18.337L-28.495,18.337L-28.495,-3.813L-24.088,-3.813C-17.48,-3.813 -12.109,1.556 -12.109,8.165L-12.109,9.281C-12.109,14.282 -16.166,18.337 -21.166,18.337" style="fill:white;fill-rule:nonzero;"/>
    </g>
    <g transform="matrix(4.166667,0,0,4.166667,1381.704167,493.42875)">
        <path d="M0,7.994L0,10.24L1.975,10.24C5.234,10.24 7.875,12.805 7.875,15.966L7.875,23.017C4.239,25.352 0.649,26.26 -2.118,26.26C-13.842,26.26 -21.166,14.484 -21.166,1.535C-21.166,-11.832 -12.418,-19.065 -3.408,-19.065C4.726,-19.065 12.997,-15.414 14.494,-5.492L16.642,-5.492L16.642,-17.821C10.2,-20.439 1.953,-21.678 -2.321,-21.678C-23.407,-21.678 -31.199,-7.978 -31.199,3.183C-31.199,10.587 -27.794,28.609 -5.214,29.107C-5.214,29.107 6.321,29.672 16.642,26.402L16.646,14.425C16.646,12.115 18.578,10.24 20.957,10.24L20.957,7.994L0,7.994Z" style="fill:white;fill-rule:nonzero;"/>
    </g>
    <g transform="matrix(4.166667,0,0,4.166667,1853.202083,449.46375)">
        <path d="M0,28.413L0,28.801C0,32.844 -3.28,36.127 -7.325,36.127L-15.814,36.094C-18.107,36.088 -19.966,34.232 -19.977,31.941L-19.977,15.246L-11.249,15.246C-8.179,15.246 -5.691,17.735 -5.691,20.804L-5.691,21.22L-3.374,21.22L-3.374,5.244L-5.691,5.244L-5.691,5.834C-5.691,9.351 -8.541,12.199 -12.057,12.199L-19.977,12.199L-19.977,-2.488C-19.947,-5.424 -17.334,-7.686 -14.397,-7.695C-11.311,-7.703 -7.325,-7.715 -7.325,-7.715C-3.28,-7.715 0,-4.435 0.003,-0.389L0.003,-0.001L2.155,-0.001L2.155,-10.633L-35.668,-10.633L-35.668,-8.317L-34.486,-8.317C-31.32,-8.317 -28.745,-5.749 -28.745,-2.578L-28.745,33.467C-28.745,35.269 -30.207,36.731 -32.01,36.731L-35.668,36.731L-35.668,39.046L2.155,39.046L2.155,28.413L0,28.413Z" style="fill:white;fill-rule:nonzero;"/>
    </g>
    <g transform="matrix(4.166667,0,0,4.166667,2244.775833,454.392083)">
        <path d="M0,26.072L0,26.153C0,30.997 -5.806,34.922 -10.693,34.922L-24.261,34.922C-25.814,34.922 -26.728,33.187 -25.834,31.924L4.175,-10.811C4.475,-11.232 4.166,-11.818 3.645,-11.818L-33.377,-11.818L-33.377,0.002L-30.8,0.002L-30.8,-0.076C-30.8,-4.919 -26.842,-8.848 -21.954,-8.848L-9.226,-8.848C-8.648,-8.848 -8.309,-8.2 -8.642,-7.73L-40.687,37.89L2.574,37.89L2.574,26.072L0,26.072Z" style="fill:white;fill-rule:nonzero;"/>
    </g>
    <g transform="matrix(4.166667,0,0,4.166667,2448.985417,414.824167)">
        <path d="M0,41.854L-16.157,-5.532L-22.749,-1.861L-22.436,-0.882L-39.105,42.04C-39.816,43.862 -41.572,45.064 -43.525,45.064L-44.705,45.064L-44.705,47.386L-30.113,47.386L-30.113,45.064L-31.556,45.064C-33.193,45.064 -34.329,43.441 -33.77,41.902L-28.115,26.109L-13.902,26.109L-9.468,42.068C-9.042,43.569 -10.171,45.064 -11.736,45.064L-15.615,45.064L-15.615,47.386L6.715,47.386L6.715,45.064L4.487,45.064C2.461,45.064 0.655,43.773 0,41.854M-26.997,23.365L-20.092,6.513L-14.759,23.365L-26.997,23.365Z" style="fill:white;fill-rule:nonzero;"/>
    </g>
    <g transform="matrix(4.166667,0,0,4.166667,1009.497083,602.6475)">
        <path d="M0,-45.089L2.603,-45.089L2.603,-47.398L-13.023,-47.398L-14.967,-43.48L-31.067,-10.966L-47.955,-44.827L-49.195,-47.329L-49.875,-47.398L-66.504,-47.398L-66.504,-45.089L-64.544,-45.089C-61.293,-45.089 -58.653,-42.451 -58.653,-39.181L-58.653,-4.859C-58.653,-1.608 -61.293,-0.017 -64.544,-0.017L-66.504,-0.017L-66.504,2.309L-47.379,2.309L-47.379,-0.017L-49.982,-0.017C-52.361,-0.017 -54.301,-0.891 -54.301,-3.284L-54.301,-35.894L-35.24,2.309L-32.924,2.309L-13.095,-37.958L-13.095,-4.88C-13.095,-1.629 -15.735,-0.038 -18.986,-0.038L-20.927,-0.038L-20.927,2.287L2.603,2.287L2.603,-0.038L0,-0.038C-2.378,-0.038 -4.317,-0.913 -4.317,-3.308L-4.317,-40.772C-4.317,-43.149 -2.378,-45.089 0,-45.089" style="fill:white;fill-rule:nonzero;"/>
    </g>
    <g transform="matrix(4.166667,0,0,4.166667,1617.507083,614.862917)">
        <path d="M0,-50.329L0,-48.013L0.592,-48.013C4.108,-48.013 6.958,-45.164 6.958,-41.648L6.958,-20.226C6.958,-11.365 2.827,-4.179 -6.034,-4.179L-6.083,-4.179C-14.704,-4.179 -19.942,-11.167 -19.942,-19.784L-19.942,-42.33C-19.942,-45.47 -17.398,-48.013 -14.258,-48.013L-13.343,-48.013L-13.343,-50.329L-35.635,-50.329L-35.635,-48.013L-34.114,-48.013C-31.13,-48.013 -28.713,-45.593 -28.713,-42.609L-28.713,-19.65C-28.713,-8.798 -19.913,0 -9.064,0L-5.352,0C4.815,0 11.19,-8.243 11.19,-18.413L11.19,-42.459C11.19,-45.527 13.675,-48.013 16.745,-48.013L17.164,-48.013L17.164,-50.329L0,-50.329Z" style="fill:white;fill-rule:nonzero;"/>
    </g>
    <g transform="matrix(4.166667,0,0,4.166667,2469.965417,451.5275)">
        <path d="M0,-14.421C4.103,-14.421 7.209,-11.123 7.209,-7.155C7.209,-3.456 4.103,0 -0.053,0C-4.157,0 -7.372,-3.104 -7.372,-7.155C-7.372,-11.123 -4.157,-14.421 -0.053,-14.421L0,-14.421ZM-0.107,-13.067C-3.27,-13.067 -5.727,-10.53 -5.727,-7.155C-5.727,-3.806 -3.27,-1.404 -0.053,-1.404C3.213,-1.404 5.561,-3.806 5.561,-7.155C5.561,-10.53 3.213,-13.067 -0.053,-13.067L-0.107,-13.067ZM3.914,-3.345C2.646,-3.345 1.809,-3.592 1.159,-4.562C0.7,-5.209 0.404,-5.967 0.16,-6.32L-0.593,-6.724L-0.812,-6.724L-0.812,-5.403C-0.812,-4.347 -0.759,-4.347 0.19,-4.294L0.19,-3.456L-3.621,-3.456L-3.621,-4.294C-2.593,-4.347 -2.565,-4.347 -2.565,-5.403L-2.565,-9.125C-2.565,-10.124 -2.593,-10.18 -3.563,-10.206L-3.563,-11.123L0.294,-11.123C1.594,-11.123 3.051,-10.775 3.051,-9.071C3.051,-8.154 2.509,-7.559 1.565,-7.209C2.216,-6.156 2.618,-5.561 3.457,-4.646L4.103,-4.051L3.914,-3.345ZM-0.404,-7.559L0.595,-7.804C0.999,-8.018 1.217,-8.424 1.217,-8.964C1.217,-9.966 0.294,-10.206 -0.107,-10.206C-0.593,-10.206 -0.812,-10.073 -0.812,-9.505L-0.812,-7.559L-0.404,-7.559Z" style="fill:white;fill-rule:nonzero;"/>
    </g>
    <g transform="matrix(4.166667,0,0,4.166667,1182.297083,614.862917)">
        <path d="M0,-50.329L0,-48.013L0.592,-48.013C4.105,-48.013 6.955,-45.164 6.955,-41.648L6.955,-20.226C6.955,-11.365 2.824,-4.179 -6.037,-4.179L-6.085,-4.179C-14.707,-4.179 -19.945,-11.167 -19.945,-19.784L-19.945,-42.33C-19.945,-45.47 -17.398,-48.013 -14.26,-48.013L-13.344,-48.013L-13.344,-50.329L-35.635,-50.329L-35.635,-48.013L-34.117,-48.013C-31.13,-48.013 -28.714,-45.593 -28.714,-42.609L-28.714,-19.65C-28.714,-8.798 -19.913,0 -9.064,0L-5.354,0C4.815,0 11.189,-8.243 11.189,-18.413L11.189,-42.459C11.189,-45.527 13.675,-48.013 16.743,-48.013L17.164,-48.013L17.164,-50.329L0,-50.329Z" style="fill:white;fill-rule:nonzero;"/>
    </g>
    <g transform="matrix(4.166667,0,0,4.166667,737.94,242.217083)">
        <path d="M0,-1.22C0,7.041 4.269,27.355 33.175,27.355C42.112,27.355 50.202,25.232 58.972,19.469L58.972,10.526C51.785,20.836 42.112,24.172 35.845,24.172C21.395,24.172 12.37,11.213 12.37,-3.034C12.37,-17.74 23.15,-25.696 34.257,-25.696C44.283,-25.696 54.479,-21.679 56.322,-10.766L58.972,-10.766L58.972,-24.329C51.034,-27.211 40.864,-28.575 35.599,-28.575C9.607,-28.575 0,-13.498 0,-1.22" style="fill:white;fill-rule:nonzero;"/>
    </g>
    <g transform="matrix(4.166667,0,0,4.166667,1146.052083,333.910833)">
        <path d="M0,-44.863L1.944,-44.863C5.203,-44.863 7.843,-42.222 7.843,-38.962L7.843,-25.076L-21.404,-25.076L-21.404,-38.962C-21.404,-42.222 -18.766,-44.863 -15.503,-44.863L-13.561,-44.863L-13.561,-47.18L-37.097,-47.18L-37.097,-44.863L-34.489,-44.863C-32.105,-44.863 -30.175,-42.934 -30.175,-40.55L-30.175,-3.262C-30.175,-0.88 -32.105,0.002 -34.489,0.002L-37.097,0.002L-37.097,2.317L-13.561,2.317L-13.561,0.002L-15.503,0.002C-18.766,0.002 -21.404,-1.59 -21.404,-4.851L-21.404,-22.34L7.843,-22.34L7.843,-4.851C7.843,-1.59 5.203,0.002 1.944,0.002L0,0.002L0,2.317L23.535,2.317L23.535,0.002L20.926,0.002C18.544,0.002 16.614,-0.88 16.614,-3.262L16.614,-40.55C16.614,-42.934 18.544,-44.863 20.926,-44.863L23.535,-44.863L23.535,-47.18L0,-47.18L0,-44.863Z" style="fill:white;fill-rule:nonzero;"/>
    </g>
    <g transform="matrix(4.166667,0,0,4.166667,2258.259167,242.354583)">
        <path d="M0,-0.562L-2.013,-1.68C-5.646,-3.656 -10.925,-6.261 -10.925,-6.261C-15.786,-8.481 -23.547,-11.961 -21.139,-17.902C-19.478,-21.995 -15.244,-22.921 -11.838,-23.009C-3.444,-23.235 1.958,-18.828 1.958,-11.801L4.56,-11.801L4.56,-23.725C1.975,-24.599 -1.872,-25.139 -4.67,-25.439C-7.481,-25.753 -10.316,-25.822 -13.129,-25.475C-23.704,-24.197 -28.689,-18.654 -28.689,-12.013C-28.689,-5.49 -25.279,-2.292 -20.805,0.226C-18.915,1.275 -16.851,2.217 -14.775,3.215C-9.109,5.803 1.223,9.561 -1.346,16.466C-2.728,20.19 -6.242,22.637 -10.209,22.742C-19.719,22.987 -25.943,16.169 -26.312,11.519L-26.331,11.084L-26.331,10.925L-29.351,10.889L-29.351,22.902C-29.351,22.902 -21.362,25.136 -10.701,25.243L-9.863,25.26C-0.769,25.26 6.608,18.844 6.608,10.925C6.608,6.221 4.005,2.044 0,-0.562" style="fill:white;fill-rule:nonzero;"/>
    </g>
    <g transform="matrix(4.166667,0,0,4.166667,2064.435,345.069167)">
        <path d="M0,-49.866L0,-47.55L0.593,-47.55C4.109,-47.55 6.96,-44.699 6.96,-41.185L6.96,-19.763C6.96,-10.902 2.83,-3.715 -6.034,-3.715L-6.083,-3.715C-14.701,-3.715 -19.939,-10.704 -19.939,-19.321L-19.939,-41.867C-19.939,-44.613 -17.994,-46.904 -15.402,-47.434C-15.032,-47.507 -14.649,-47.55 -14.26,-47.55L-13.344,-47.55L-13.344,-49.866L-87.417,-49.866C-88.069,-49.949 -88.709,-50.03 -89.292,-50.09C-92.105,-50.404 -94.939,-50.474 -97.753,-50.124C-108.332,-48.848 -113.313,-43.306 -113.313,-36.664C-113.313,-30.144 -109.901,-26.944 -105.427,-24.426C-103.541,-23.376 -101.477,-22.434 -99.396,-21.438C-93.731,-18.848 -83.4,-15.09 -85.97,-8.184C-87.352,-4.463 -90.867,-2.014 -94.833,-1.91C-104.346,-1.664 -110.566,-8.482 -110.935,-13.134L-110.951,-13.568L-110.951,-13.726L-113.978,-13.76L-113.978,-1.75C-113.978,-1.75 -105.985,0.487 -95.322,0.592L-94.484,0.608C-85.392,0.608 -78.015,-5.807 -78.015,-13.726C-78.015,-18.431 -80.623,-22.608 -84.623,-25.211L-85.009,-25.44L-85.918,-25.947L-86.407,-26.209L-86.635,-26.332C-90.272,-28.309 -95.55,-30.911 -95.55,-30.911C-100.409,-33.134 -108.172,-36.159 -105.759,-42.102C-104.098,-46.195 -99.869,-47.121 -96.46,-47.209C-88.234,-47.43 -82.395,-43.628 -82.167,-36.862L-79.584,-36.862L-79.584,-37.692C-79.584,-42.499 -75.686,-46.397 -70.879,-46.397L-64.642,-46.397C-61.381,-46.397 -58.739,-43.756 -58.739,-40.495L-58.739,-7.527C-58.739,-4.849 -60.911,-2.676 -63.59,-2.676L-66.586,-2.676L-66.586,-0.362L-42.054,-0.362L-42.054,-2.676L-45.05,-2.676C-47.726,-2.676 -49.9,-4.849 -49.9,-7.527L-49.9,-40.495C-49.9,-43.756 -47.259,-46.397 -43.999,-46.397L-37.356,-46.397C-32.741,-46.397 -29.001,-42.793 -28.71,-38.252L-28.71,-19.186C-28.71,-8.334 -19.913,0.463 -9.061,0.463L-5.353,0.463C4.815,0.463 11.193,-7.78 11.193,-17.95L11.193,-41.995C11.193,-44.679 13.095,-46.919 15.625,-47.436L16.744,-47.55L17.167,-47.55L17.167,-49.866L0,-49.866Z" style="fill:white;fill-rule:nonzero;"/>
    </g>
    <g transform="matrix(4.166667,0,0,4.166667,1476.245833,343.56125)">
        <path d="M0,-49.496L0,-47.187L1.204,-47.187C4.469,-47.187 7.114,-44.545 7.114,-41.281L7.114,-8.222C7.114,-6.803 6.974,-2.311 1.762,-2.311C1.179,-2.311 0.587,-2.4 0,-2.53C-2.783,-3.135 -5.511,-5.041 -7.08,-7.31L-19.148,-25.057C-11.725,-25.226 -6.097,-32.582 -8.941,-40.454C-10.943,-46.001 -16.463,-49.496 -22.356,-49.496L-50.271,-49.496L-50.271,-47.187L-47.434,-47.187C-45.177,-47.187 -43.346,-45.358 -43.346,-43.097L-43.346,-7.132C-43.346,-4.48 -45.517,-2.308 -48.17,-2.308L-50.271,-2.308L-50.271,0L-26.74,0L-26.74,-2.308L-28.382,-2.308C-31.81,-2.308 -34.589,-5.085 -34.589,-8.512L-34.589,-22.888L-31.741,-22.888C-29.442,-22.888 -27.33,-21.634 -26.23,-19.617L-20.557,-8.96C-17.546,-3.439 -11.756,-0.002 -5.467,-0.002L23.722,-0.002L23.722,-2.311L22.514,-2.311C19.251,-2.311 16.608,-4.956 16.608,-8.219L16.608,-41.281C16.608,-44.545 19.251,-47.187 22.514,-47.187L23.722,-47.187L23.722,-49.496L0,-49.496ZM-27.263,-25.04L-34.589,-25.04L-34.589,-47.187L-30.181,-47.187C-23.569,-47.187 -18.205,-41.829 -18.205,-35.213L-18.205,-34.095C-18.205,-29.092 -22.261,-25.04 -27.263,-25.04" style="fill:white;fill-rule:nonzero;"/>
    </g>
    <g transform="matrix(4.166667,0,0,4.166667,816.905,856.09875)">
        <path d="M0,-32.573L0,-21.801L-0.851,-21.801C-1.125,-23.868 -1.619,-25.515 -2.332,-26.74C-3.044,-27.963 -4.058,-28.937 -5.375,-29.658C-6.692,-30.376 -8.056,-30.736 -9.464,-30.736C-11.057,-30.736 -12.374,-30.25 -13.416,-29.278C-14.456,-28.304 -14.976,-27.198 -14.976,-25.959C-14.976,-25.008 -14.648,-24.144 -13.99,-23.363C-13.041,-22.213 -10.781,-20.682 -7.214,-18.767C-4.304,-17.207 -2.318,-16.008 -1.253,-15.174C-0.186,-14.338 0.633,-13.356 1.206,-12.222C1.78,-11.087 2.067,-9.902 2.067,-8.662C2.067,-6.304 1.151,-4.269 -0.678,-2.562C-2.507,-0.856 -4.864,0 -7.742,0C-8.645,0 -9.494,-0.071 -10.291,-0.208C-10.766,-0.286 -11.75,-0.564 -13.242,-1.046C-14.736,-1.53 -15.682,-1.771 -16.081,-1.771L-16.988,-1.426C-17.209,-1.194 -17.374,-0.721 -17.481,0L-18.332,0L-18.332,-10.683L-17.481,-10.683C-17.083,-8.446 -16.547,-6.774 -15.873,-5.664C-15.199,-4.552 -14.171,-3.63 -12.783,-2.895C-11.399,-2.16 -9.878,-1.793 -8.224,-1.793C-6.311,-1.793 -4.796,-2.299 -3.687,-3.308C-2.577,-4.32 -2.022,-5.516 -2.022,-6.891C-2.022,-7.659 -2.233,-8.431 -2.655,-9.213C-3.075,-9.994 -3.728,-10.721 -4.616,-11.396C-5.214,-11.854 -6.846,-12.83 -9.509,-14.323C-12.177,-15.817 -14.069,-17.008 -15.196,-17.897C-16.321,-18.785 -17.173,-19.765 -17.758,-20.837C-18.338,-21.908 -18.63,-23.088 -18.63,-24.372C-18.63,-26.609 -17.773,-28.534 -16.057,-30.151C-14.342,-31.767 -12.159,-32.573 -9.509,-32.573C-7.855,-32.573 -6.105,-32.169 -4.25,-31.356C-3.391,-30.973 -2.788,-30.783 -2.436,-30.783C-2.036,-30.783 -1.711,-30.902 -1.458,-31.139C-1.207,-31.375 -1.004,-31.852 -0.851,-32.573L0,-32.573Z" style="fill:white;fill-rule:nonzero;"/>
    </g>
    <g transform="matrix(4.166667,0,0,4.166667,872.417917,807.284583)">
        <path d="M0,-10.659L0,6.246C0,7.565 0.097,8.441 0.287,8.877C0.477,9.312 0.76,9.639 1.137,9.853C1.512,10.068 2.197,10.175 3.193,10.175L3.193,11.003L-7.029,11.003L-7.029,10.175C-6.003,10.175 -5.313,10.074 -4.962,9.876C-4.61,9.679 -4.329,9.348 -4.124,8.889C-3.917,8.429 -3.815,7.549 -3.815,6.246L-3.815,-1.861C-3.815,-4.143 -3.881,-5.621 -4.02,-6.295C-4.128,-6.786 -4.295,-7.126 -4.527,-7.316C-4.755,-7.506 -5.069,-7.603 -5.467,-7.603C-5.896,-7.603 -6.415,-7.49 -7.029,-7.26L-7.35,-8.087L-1.011,-10.659L0,-10.659ZM-1.906,-21.662C-1.266,-21.662 -0.716,-21.435 -0.264,-20.985C0.186,-20.533 0.413,-19.986 0.413,-19.343C0.413,-18.7 0.186,-18.146 -0.264,-17.688C-0.716,-17.228 -1.266,-16.999 -1.906,-16.999C-2.549,-16.999 -3.101,-17.228 -3.561,-17.688C-4.02,-18.146 -4.25,-18.7 -4.25,-19.343C-4.25,-19.986 -4.024,-20.533 -3.572,-20.985C-3.12,-21.435 -2.565,-21.662 -1.906,-21.662" style="fill:white;fill-rule:nonzero;"/>
    </g>
    <g transform="matrix(4.166667,0,0,4.166667,953.2925,855.809583)">
        <path d="M0,-22.305L0,-15.137L-0.759,-15.137C-1.34,-17.389 -2.086,-18.921 -2.997,-19.733C-3.909,-20.544 -5.069,-20.95 -6.476,-20.95C-7.549,-20.95 -8.416,-20.667 -9.074,-20.1C-9.732,-19.533 -10.063,-18.906 -10.063,-18.216C-10.063,-17.359 -9.817,-16.624 -9.324,-16.012C-8.851,-15.385 -7.889,-14.717 -6.43,-14.013L-3.079,-12.383C0.029,-10.864 1.583,-8.869 1.583,-6.387C1.583,-4.472 0.861,-2.928 -0.585,-1.758C-2.032,-0.587 -3.652,0 -5.444,0C-6.73,0 -8.199,-0.23 -9.855,-0.69C-10.36,-0.842 -10.772,-0.92 -11.094,-0.92C-11.447,-0.92 -11.722,-0.721 -11.922,-0.324L-12.68,-0.324L-12.68,-7.834L-11.922,-7.834C-11.492,-5.69 -10.673,-4.074 -9.464,-2.987C-8.255,-1.9 -6.9,-1.356 -5.397,-1.356C-4.342,-1.356 -3.479,-1.666 -2.816,-2.288C-2.149,-2.908 -1.814,-3.653 -1.814,-4.527C-1.814,-5.583 -2.184,-6.471 -2.928,-7.191C-3.671,-7.909 -5.152,-8.823 -7.375,-9.925C-9.595,-11.028 -11.049,-12.023 -11.737,-12.912C-12.427,-13.782 -12.773,-14.887 -12.773,-16.218C-12.773,-17.948 -12.18,-19.396 -10.99,-20.56C-9.805,-21.723 -8.27,-22.305 -6.386,-22.305C-5.558,-22.305 -4.556,-22.129 -3.377,-21.778C-2.594,-21.548 -2.076,-21.433 -1.814,-21.433L-1.239,-21.593L-0.759,-22.305L0,-22.305Z" style="fill:white;fill-rule:nonzero;"/>
    </g>
    <g transform="matrix(4.166667,0,0,4.166667,998.37875,854.5625)">
        <path d="M0,-28.3L0,-21.386L4.916,-21.386L4.916,-19.777L0,-19.777L0,-6.134C0,-4.77 0.192,-3.853 0.584,-3.377C0.975,-2.901 1.477,-2.665 2.087,-2.665C2.594,-2.665 3.082,-2.822 3.558,-3.137C4.034,-3.45 4.402,-3.913 4.663,-4.524L5.557,-4.524C5.022,-3.026 4.264,-1.896 3.284,-1.136C2.304,-0.38 1.292,0 0.25,0C-0.453,0 -1.141,-0.195 -1.817,-0.588C-2.49,-0.978 -2.987,-1.536 -3.309,-2.262C-3.63,-2.989 -3.791,-4.113 -3.791,-5.629L-3.791,-19.777L-7.121,-19.777L-7.121,-20.536C-6.28,-20.873 -5.419,-21.444 -4.538,-22.247C-3.658,-23.051 -2.874,-24.005 -2.183,-25.106C-1.833,-25.691 -1.34,-26.754 -0.715,-28.3L0,-28.3Z" style="fill:white;fill-rule:nonzero;"/>
    </g>
    <g transform="matrix(4.166667,0,0,4.166667,1042.110417,820.10625)">
        <path d="M0,-5.191C-0.015,-2.068 0.744,0.383 2.275,2.159C3.806,3.936 5.605,4.823 7.672,4.823C9.05,4.823 10.249,4.444 11.268,3.687C12.286,2.928 13.139,1.631 13.83,-0.207L14.539,0.253C14.22,2.352 13.285,4.259 11.737,5.984C10.191,7.708 8.255,8.568 5.927,8.568C3.4,8.568 1.236,7.583 -0.561,5.614C-2.36,3.648 -3.261,1.003 -3.261,-2.321C-3.261,-5.918 -2.34,-8.726 -0.492,-10.739C1.351,-12.752 3.668,-13.759 6.454,-13.759C8.814,-13.759 10.751,-12.983 12.266,-11.429C13.785,-9.874 14.539,-7.797 14.539,-5.191L0,-5.191ZM0,-6.523L9.742,-6.523C9.664,-7.872 9.503,-8.821 9.258,-9.372C8.875,-10.23 8.305,-10.904 7.547,-11.393C6.788,-11.886 5.994,-12.127 5.17,-12.127C3.898,-12.127 2.761,-11.635 1.758,-10.646C0.754,-9.66 0.17,-8.285 0,-6.523" style="fill:white;fill-rule:nonzero;"/>
    </g>
    <g transform="matrix(4.166667,0,0,4.166667,1140.405833,834.47125)">
        <path d="M0,-12.706C1.534,-14.235 2.436,-15.117 2.713,-15.347C3.401,-15.927 4.143,-16.38 4.941,-16.702C5.735,-17.023 6.525,-17.184 7.305,-17.184C8.623,-17.184 9.756,-16.8 10.706,-16.036C11.653,-15.27 12.291,-14.159 12.61,-12.706C14.188,-14.543 15.521,-15.75 16.608,-16.323C17.696,-16.897 18.816,-17.184 19.963,-17.184C21.079,-17.184 22.072,-16.897 22.938,-16.323C23.802,-15.75 24.488,-14.811 24.992,-13.507C25.328,-12.62 25.498,-11.228 25.498,-9.329L25.498,-0.279C25.498,1.041 25.597,1.943 25.799,2.433C25.95,2.771 26.234,3.058 26.647,3.294C27.062,3.531 27.734,3.65 28.667,3.65L28.667,4.478L18.285,4.478L18.285,3.65L18.723,3.65C19.626,3.65 20.33,3.474 20.836,3.123C21.189,2.878 21.439,2.488 21.593,1.949C21.653,1.69 21.684,0.949 21.684,-0.279L21.684,-9.329C21.684,-11.043 21.477,-12.253 21.064,-12.958C20.468,-13.938 19.51,-14.427 18.193,-14.427C17.381,-14.427 16.565,-14.225 15.748,-13.818C14.927,-13.414 13.934,-12.661 12.773,-11.556L12.726,-11.304L12.773,-10.317L12.773,-0.279C12.773,1.163 12.853,2.056 13.013,2.411C13.174,2.762 13.476,3.058 13.92,3.294C14.366,3.531 15.122,3.65 16.195,3.65L16.195,4.478L5.561,4.478L5.561,3.65C6.724,3.65 7.524,3.512 7.959,3.235C8.397,2.961 8.699,2.548 8.869,1.996C8.943,1.735 8.983,0.978 8.983,-0.279L8.983,-9.329C8.983,-11.043 8.729,-12.277 8.226,-13.027C7.552,-14.007 6.608,-14.498 5.4,-14.498C4.572,-14.498 3.753,-14.275 2.94,-13.831C1.67,-13.156 0.691,-12.398 0,-11.556L0,-0.279C0,1.101 0.097,1.996 0.288,2.411C0.479,2.822 0.762,3.133 1.137,3.339C1.512,3.547 2.275,3.65 3.422,3.65L3.422,4.478L-6.984,4.478L-6.984,3.65C-6.018,3.65 -5.343,3.547 -4.962,3.339C-4.578,3.133 -4.288,2.803 -4.089,2.352C-3.89,1.899 -3.79,1.023 -3.79,-0.279L-3.79,-8.317C-3.79,-10.63 -3.859,-12.121 -3.996,-12.798C-4.103,-13.301 -4.272,-13.651 -4.502,-13.841C-4.732,-14.032 -5.047,-14.128 -5.444,-14.128C-5.872,-14.128 -6.384,-14.016 -6.984,-13.784L-7.326,-14.612L-0.988,-17.184L0,-17.184L0,-12.706Z" style="fill:white;fill-rule:nonzero;"/>
    </g>
    <g transform="matrix(4.166667,0,0,4.166667,1316.52125,777.3275)">
        <path d="M0,15.159C-2.16,16.829 -3.515,17.791 -4.068,18.054C-4.893,18.438 -5.775,18.628 -6.708,18.628C-8.163,18.628 -9.361,18.131 -10.303,17.134C-11.246,16.139 -11.717,14.831 -11.717,13.208C-11.717,12.181 -11.487,11.293 -11.025,10.543C-10.4,9.5 -9.308,8.521 -7.754,7.601C-6.2,6.683 -3.615,5.567 0,4.248L0,3.422C0,1.323 -0.336,-0.116 -1.002,-0.898C-1.666,-1.679 -2.636,-2.069 -3.907,-2.069C-4.87,-2.069 -5.636,-1.809 -6.203,-1.288C-6.787,-0.768 -7.076,-0.17 -7.076,0.504L-7.03,1.835C-7.03,2.542 -7.209,3.084 -7.569,3.467C-7.93,3.851 -8.402,4.042 -8.983,4.042C-9.55,4.042 -10.012,3.842 -10.373,3.444C-10.732,3.047 -10.912,2.502 -10.912,1.815C-10.912,0.495 -10.239,-0.714 -8.891,-1.817C-7.543,-2.918 -5.652,-3.469 -3.217,-3.469C-1.349,-3.469 0.182,-3.156 1.375,-2.527C2.281,-2.054 2.947,-1.31 3.376,-0.3C3.651,0.359 3.788,1.707 3.788,3.744L3.788,10.886C3.788,12.893 3.826,14.122 3.904,14.573C3.981,15.026 4.106,15.329 4.283,15.481L4.891,15.71L5.536,15.55C5.857,15.349 6.476,14.79 7.395,13.873L7.395,15.159C5.679,17.457 4.043,18.605 2.48,18.605C1.73,18.605 1.132,18.345 0.688,17.824C0.243,17.304 0.014,16.416 0,15.159M0,13.666L0,5.65C-2.312,6.567 -3.806,7.219 -4.48,7.601C-5.69,8.277 -6.556,8.98 -7.076,9.715C-7.597,10.451 -7.857,11.255 -7.857,12.128C-7.857,13.23 -7.528,14.145 -6.869,14.872C-6.21,15.598 -5.453,15.963 -4.596,15.963C-3.431,15.963 -1.9,15.197 0,13.666" style="fill:white;fill-rule:nonzero;"/>
    </g>
    <g transform="matrix(4.166667,0,0,4.166667,1464.769583,729.56625)">
        <path d="M0,27.288C-1.026,28.36 -2.029,29.129 -3.009,29.597C-3.991,30.064 -5.045,30.298 -6.179,30.298C-8.476,30.298 -10.482,29.336 -12.196,27.415C-13.912,25.493 -14.771,23.024 -14.771,20.007C-14.771,16.99 -13.822,14.228 -11.922,11.726C-10.022,9.221 -7.58,7.97 -4.594,7.97C-2.741,7.97 -1.21,8.56 0,9.738L0,5.856C0,3.452 -0.059,1.974 -0.172,1.425C-0.287,0.872 -0.467,0.497 -0.712,0.298L-1.632,-0.002C-2.029,-0.002 -2.556,0.122 -3.216,0.367L-3.514,-0.437L2.757,-3.01L3.791,-3.01L3.791,21.317C3.791,23.782 3.848,25.285 3.963,25.83C4.078,26.375 4.263,26.752 4.513,26.967L5.398,27.288C5.813,27.288 6.364,27.158 7.052,26.898L7.306,27.701L1.058,30.298L0,30.298L0,27.288ZM0,25.68L0,14.839C-0.092,13.797 -0.368,12.848 -0.825,11.99C-1.286,11.133 -1.896,10.485 -2.653,10.049C-3.41,9.612 -4.149,9.394 -4.87,9.394C-6.219,9.394 -7.418,9.997 -8.476,11.209C-9.869,12.803 -10.567,15.129 -10.567,18.191C-10.567,21.285 -9.893,23.654 -8.545,25.303C-7.197,26.948 -5.697,27.771 -4.042,27.771C-2.65,27.771 -1.302,27.074 0,25.68" style="fill:white;fill-rule:nonzero;"/>
    </g>
    <g transform="matrix(4.166667,0,0,4.166667,1515.5975,820.10625)">
        <path d="M0,-5.191C-0.016,-2.068 0.741,0.383 2.272,2.159C3.804,3.936 5.603,4.823 7.67,4.823C9.05,4.823 10.249,4.444 11.264,3.687C12.285,2.928 13.139,1.631 13.827,-0.207L14.539,0.253C14.219,2.352 13.284,4.259 11.736,5.984C10.19,7.708 8.252,8.568 5.926,8.568C3.397,8.568 1.236,7.583 -0.563,5.614C-2.363,3.648 -3.262,1.003 -3.262,-2.321C-3.262,-5.918 -2.343,-8.726 -0.497,-10.739C1.351,-12.752 3.665,-13.759 6.453,-13.759C8.811,-13.759 10.75,-12.983 12.266,-11.429C13.782,-9.874 14.539,-7.797 14.539,-5.191L0,-5.191ZM0,-6.523L9.737,-6.523C9.661,-7.872 9.5,-8.821 9.255,-9.372C8.873,-10.23 8.302,-10.904 7.544,-11.393C6.786,-11.886 5.994,-12.127 5.167,-12.127C3.895,-12.127 2.758,-11.635 1.758,-10.646C0.751,-9.66 0.168,-8.285 0,-6.523" style="fill:white;fill-rule:nonzero;"/>
    </g>
    <g transform="matrix(4.166667,0,0,4.166667,1720.600417,856.09875)">
        <path d="M0,-32.573L0,-21.801L-0.85,-21.801C-1.125,-23.868 -1.619,-25.515 -2.331,-26.74C-3.043,-27.963 -4.058,-28.937 -5.375,-29.658C-6.692,-30.376 -8.056,-30.736 -9.464,-30.736C-11.057,-30.736 -12.373,-30.25 -13.413,-29.278C-14.456,-28.304 -14.976,-27.198 -14.976,-25.959C-14.976,-25.008 -14.648,-24.144 -13.99,-23.363C-13.038,-22.213 -10.78,-20.682 -7.213,-18.767C-4.304,-17.207 -2.316,-16.008 -1.253,-15.174C-0.186,-14.338 0.633,-13.356 1.207,-12.222C1.78,-11.087 2.068,-9.902 2.068,-8.662C2.068,-6.304 1.151,-4.269 -0.677,-2.562C-2.507,-0.856 -4.861,0 -7.742,0C-8.645,0 -9.494,-0.071 -10.291,-0.208C-10.764,-0.286 -11.749,-0.564 -13.242,-1.046C-14.734,-1.53 -15.679,-1.771 -16.079,-1.771L-16.986,-1.426C-17.209,-1.194 -17.373,-0.721 -17.481,0L-18.329,0L-18.329,-10.683L-17.481,-10.683C-17.081,-8.446 -16.546,-6.774 -15.873,-5.664C-15.197,-4.552 -14.167,-3.63 -12.783,-2.895C-11.396,-2.16 -9.875,-1.793 -8.224,-1.793C-6.309,-1.793 -4.796,-2.299 -3.686,-3.308C-2.577,-4.32 -2.022,-5.516 -2.022,-6.891C-2.022,-7.659 -2.233,-8.431 -2.654,-9.213C-3.075,-9.994 -3.728,-10.721 -4.616,-11.396C-5.214,-11.854 -6.844,-12.83 -9.509,-14.323C-12.177,-15.817 -14.069,-17.008 -15.194,-17.897C-16.321,-18.785 -17.173,-19.765 -17.755,-20.837C-18.338,-21.908 -18.628,-23.088 -18.628,-24.372C-18.628,-26.609 -17.773,-28.534 -16.057,-30.151C-14.342,-31.767 -12.159,-32.573 -9.509,-32.573C-7.855,-32.573 -6.101,-32.169 -4.248,-31.356C-3.391,-30.973 -2.786,-30.783 -2.435,-30.783C-2.036,-30.783 -1.711,-30.902 -1.458,-31.139C-1.207,-31.375 -1.004,-31.852 -0.85,-32.573L0,-32.573Z" style="fill:white;fill-rule:nonzero;"/>
    </g>
    <g transform="matrix(4.166667,0,0,4.166667,1795.541667,777.3275)">
        <path d="M0,15.159C-2.159,16.829 -3.514,17.791 -4.065,18.054C-4.893,18.438 -5.773,18.628 -6.706,18.628C-8.163,18.628 -9.361,18.131 -10.302,17.134C-11.243,16.139 -11.715,14.831 -11.715,13.208C-11.715,12.181 -11.484,11.293 -11.025,10.543C-10.398,9.5 -9.305,8.521 -7.753,7.601C-6.198,6.683 -3.613,5.567 0,4.248L0,3.422C0,1.323 -0.333,-0.116 -0.999,-0.898C-1.666,-1.679 -2.633,-2.069 -3.904,-2.069C-4.87,-2.069 -5.634,-1.809 -6.203,-1.288C-6.784,-0.768 -7.076,-0.17 -7.076,0.504L-7.029,1.835C-7.029,2.542 -7.211,3.084 -7.569,3.467C-7.93,3.851 -8.4,4.042 -8.982,4.042C-9.548,4.042 -10.011,3.842 -10.372,3.444C-10.731,3.047 -10.911,2.502 -10.911,1.815C-10.911,0.495 -10.236,-0.714 -8.889,-1.817C-7.543,-2.918 -5.649,-3.469 -3.216,-3.469C-1.348,-3.469 0.185,-3.156 1.378,-2.527C2.282,-2.054 2.949,-1.31 3.377,-0.3C3.653,0.359 3.791,1.707 3.791,3.744L3.791,10.886C3.791,12.893 3.829,14.122 3.904,14.573C3.982,15.026 4.108,15.329 4.283,15.481L4.893,15.71L5.536,15.55C5.858,15.349 6.478,14.79 7.398,13.873L7.398,15.159C5.681,17.457 4.043,18.605 2.482,18.605C1.73,18.605 1.134,18.345 0.688,17.824C0.245,17.304 0.015,16.416 0,15.159M0,13.666L0,5.65C-2.313,6.567 -3.806,7.219 -4.48,7.601C-5.688,8.277 -6.554,8.98 -7.076,9.715C-7.594,10.451 -7.856,11.255 -7.856,12.128C-7.856,13.23 -7.528,14.145 -6.868,14.872C-6.208,15.598 -5.453,15.963 -4.593,15.963C-3.431,15.963 -1.897,15.197 0,13.666" style="fill:white;fill-rule:nonzero;"/>
    </g>
    <g transform="matrix(4.166667,0,0,4.166667,1863.020417,853.130833)">
        <path d="M0,-32.665L0,-4.757C0,-3.438 0.095,-2.567 0.287,-2.137C0.477,-1.708 0.773,-1.383 1.17,-1.16C1.569,-0.939 2.313,-0.828 3.4,-0.828L3.4,0L-6.915,0L-6.915,-0.828C-5.951,-0.828 -5.292,-0.929 -4.938,-1.128C-4.587,-1.324 -4.312,-1.655 -4.112,-2.114C-3.915,-2.575 -3.815,-3.454 -3.815,-4.757L-3.815,-23.868C-3.815,-26.241 -3.869,-27.702 -3.976,-28.244C-4.083,-28.789 -4.254,-29.159 -4.493,-29.357L-5.4,-29.657C-5.798,-29.657 -6.302,-29.533 -6.915,-29.288L-7.306,-30.093L-1.034,-32.665L0,-32.665Z" style="fill:white;fill-rule:nonzero;"/>
    </g>
    <g transform="matrix(4.166667,0,0,4.166667,1964.185,855.80875)">
        <path d="M0,-21.685L0,-8.936C0,-6.502 0.057,-5.013 0.171,-4.468C0.286,-3.924 0.47,-3.546 0.724,-3.331L1.607,-3.01C2.082,-3.01 2.618,-3.14 3.215,-3.4L3.536,-2.597L-2.759,0L-3.791,0L-3.791,-4.457C-5.598,-2.497 -6.976,-1.264 -7.925,-0.758C-8.876,-0.253 -9.878,0 -10.936,0C-12.115,0 -13.138,-0.341 -14.002,-1.022C-14.866,-1.703 -15.468,-2.581 -15.805,-3.653C-16.142,-4.725 -16.311,-6.24 -16.311,-8.2L-16.311,-17.596C-16.311,-18.591 -16.416,-19.281 -16.633,-19.663C-16.847,-20.047 -17.165,-20.342 -17.585,-20.548C-18.007,-20.755 -18.769,-20.85 -19.87,-20.835L-19.87,-21.685L-12.497,-21.685L-12.497,-7.604C-12.497,-5.643 -12.156,-4.358 -11.475,-3.745C-10.794,-3.132 -9.97,-2.825 -9.004,-2.825C-8.349,-2.825 -7.6,-3.033 -6.765,-3.447C-5.932,-3.861 -4.941,-4.648 -3.791,-5.812L-3.791,-17.734C-3.791,-18.928 -4.008,-19.737 -4.446,-20.159C-4.881,-20.579 -5.789,-20.803 -7.168,-20.835L-7.168,-21.685L0,-21.685Z" style="fill:white;fill-rule:nonzero;"/>
    </g>
    <g transform="matrix(4.166667,0,0,4.166667,2047.26125,729.56625)">
        <path d="M0,27.288C-1.027,28.36 -2.031,29.129 -3.01,29.597C-3.991,30.064 -5.048,30.298 -6.181,30.298C-8.476,30.298 -10.483,29.336 -12.198,27.415C-13.914,25.493 -14.771,23.024 -14.771,20.007C-14.771,16.99 -13.822,14.228 -11.922,11.726C-10.025,9.221 -7.583,7.97 -4.596,7.97C-2.742,7.97 -1.21,8.56 0,9.738L0,5.856C0,3.452 -0.059,1.974 -0.174,1.425C-0.289,0.872 -0.469,0.497 -0.712,0.298L-1.632,-0.002C-2.031,-0.002 -2.558,0.122 -3.217,0.367L-3.514,-0.437L2.757,-3.01L3.79,-3.01L3.79,21.317C3.79,23.782 3.848,25.285 3.961,25.83C4.075,26.375 4.26,26.752 4.513,26.967L5.398,27.288C5.81,27.288 6.361,27.158 7.052,26.898L7.304,27.701L1.056,30.298L0,30.298L0,27.288ZM0,25.68L0,14.839C-0.093,13.797 -0.368,12.848 -0.828,11.99C-1.286,11.133 -1.896,10.485 -2.655,10.049C-3.412,9.612 -4.152,9.394 -4.871,9.394C-6.219,9.394 -7.421,9.997 -8.476,11.209C-9.869,12.803 -10.567,15.129 -10.567,18.191C-10.567,21.285 -9.894,23.654 -8.545,25.303C-7.199,26.948 -5.699,27.771 -4.045,27.771C-2.65,27.771 -1.302,27.074 0,25.68" style="fill:white;fill-rule:nonzero;"/>
    </g>
</svg>
