<?xml version="1.0" encoding="UTF-8" standalone="no"?>
<!DOCTYPE svg PUBLIC "-//W3C//DTD SVG 1.1//EN" "http://www.w3.org/Graphics/SVG/1.1/DTD/svg11.dtd">
<svg width="100%" height="100%" viewBox="0 0 1376 623" version="1.1" xmlns="http://www.w3.org/2000/svg" xmlns:xlink="http://www.w3.org/1999/xlink" xml:space="preserve" xmlns:serif="http://www.serif.com/" style="fill-rule:evenodd;clip-rule:evenodd;stroke-linejoin:round;stroke-miterlimit:2;">
    <g transform="matrix(4.166667,0,0,4.166667,101.825,28.920833)">
        <path d="M0,53.664L-0.489,53.664L-0.195,59.138L-1.857,59.236L-2.15,53.664L-2.248,53.664L-2.248,59.138L-5.669,59.138L-5.669,58.258L-8.7,58.063L-8.113,33.527L-16.617,33.137L-16.422,59.431L-19.159,59.431L-19.354,60.605L-20.43,60.605L-20.43,53.567L-21.114,60.409L-23.558,60.409L-23.362,53.664L-24.438,53.567L-24.144,-6.941L-19.941,-6.843L-19.941,-5.573L-17.009,-5.67L-16.715,26.489L-15.444,26.783L-15.444,26.099L-7.917,26.196L-7.722,17.692L-7.917,17.692L-8.602,-2.347L-8.016,-2.444L-8.113,-4.301L-6.451,-4.399L-6.354,-2.444L-5.767,-2.542L-5.767,-4.301L-4.888,-4.301L-4.888,-4.888L-1.564,-4.595L-1.857,-1.369L-0.293,-1.369L0,53.664ZM29.226,47.603L29.226,50.634L30.203,50.634L31.279,50.732L41.543,50.732L41.543,53.762L39.294,53.762L39.294,54.251L42.227,54.349L42.129,57.379L36.753,57.281L35.971,59.236L20.526,59.236L21.211,4.007L22.775,4.007L22.579,1.368L21.406,1.368L21.308,0.195L23.947,0.097L23.947,-0.294L21.504,-0.392L21.406,-2.835L28.249,-3.031L28.249,-4.106L33.722,-4.301L35.091,-4.399L37.828,-4.497L43.205,-4.791L43.4,4.007L43.4,8.797L43.497,18.278L43.693,27.761L43.693,32.452L43.889,40.957L38.024,40.859L29.422,40.859L29.226,47.603ZM31.181,3.714L30.106,3.812L29.715,26.001L29.519,33.626L36.362,33.626L36.362,32.649L36.264,27.858L35.971,18.377L35.678,8.895L35.58,4.203L35.58,3.421L35.482,3.421L35.482,3.519L35.384,3.519L31.181,3.714ZM26.783,-0L27.173,-0.098L27.173,-0.195L26.783,-0.195L26.783,-0ZM80.25,37.144L88.07,57.868L85.333,58.845L84.551,57.476L85.236,59.627L82.009,60.605L81.619,59.138L79.761,59.725L73.212,38.708L73.017,38.121L71.746,38.708L71.453,38.121L71.355,42.227L71.844,53.762L70.573,53.859L70.475,58.454L68.422,58.356L68.52,57.086L67.445,57.086L67.445,57.476L63.437,57.183L65.295,3.714L63.828,3.714L63.926,-0.489L65.197,-0.489L65.099,-2.151L67.738,-2.249L67.836,-3.129L85.724,-3.813L85.138,35.287L80.25,37.144ZM72.626,3.812L71.648,32.257L75.167,31.083L77.611,30.204C77.741,30.335 77.87,30.335 78.002,30.204C78.066,30.204 78.1,30.106 78.1,29.911L78.197,29.813L78.197,28.64L78.295,27.369L78.589,22.286L78.98,11.24L79.175,5.669L79.273,4.3L79.273,3.812L79.37,2.736L77.611,2.736L73.212,2.834L73.017,3.812L72.626,3.812ZM73.603,33.43L71.648,33.723L71.648,34.212L73.603,33.43ZM141.833,2.443L144.472,2.638L144.277,4.3L143.787,4.3L143.787,54.25L141.148,54.348L141.05,58.943L138.411,58.943L138.021,56.108L137.923,56.108L137.923,59.92L134.795,59.92L135.284,4.3L129.419,4.3L130.005,42.814L128.832,42.814L129.223,49.656L127.561,49.754L127.268,45.746L126.975,45.746L127.366,50.34L125.704,50.536L125.411,47.799L123.945,47.896L123.651,41.152L122.772,41.152L123.261,30.986L123.065,30.986L122.87,15.932L122.772,8.308L122.772,4.593L122.674,4.105L117.2,3.909L117.982,56.01L115.049,56.206L114.854,52.882L114.756,57.671L111.433,57.671L111.433,54.348L109.576,54.348L110.26,3.812L110.26,2.638L107.816,2.834L107.816,1.172L109.282,0.976L109.282,0.683L107.62,0.976L107.62,-0.685L108.598,-0.881L108.598,-2.347L110.944,-2.543L111.042,-3.324L114.658,-2.64L114.658,-2.836L130.689,-2.347L134.502,-2.249L143.202,-2.249L143.202,-0.587L141.93,-0.587L141.93,-0.099L143.69,-0.099L143.69,1.563L141.833,1.563L141.833,2.443ZM184.451,-4.204L184.353,-0.685L188.263,-0.587L187.872,22.971L186.992,22.971L187.676,57.575L184.565,57.672L184.565,58.552L180.389,58.455L180.487,56.108L178.06,56.011L178.544,34.114L172.623,34.506L172.525,60.214L169.788,60.312L169.691,61.387L168.517,61.387L168.564,54.739L167.931,61.191L165.389,61.191L165.682,54.739L164.51,54.739L165.292,3.323L164.9,3.323L164.9,0.586L164.607,0.488L164.607,-0.685L165.389,-0.685L165.395,-1.076L164.607,-1.272L164.607,-3.715L166.66,-3.519L166.66,-4.693L184.451,-4.204ZM173.014,28.053L172.916,27.37L178.586,26.783L179.074,3.127L172.623,3.225L172.623,27.956L173.014,28.053ZM263.529,0.096L264.019,0.096L263.725,3.42L261.77,3.225L261.77,3.909L263.236,3.909L263.04,20.82L262.943,29.324L262.943,33.527L262.747,41.64L256.003,42.227L254.634,42.325L253.754,42.423L252.093,42.618L245.152,43.205L245.054,42.715L240.363,43.498L240.07,41.836L244.798,41.054L244.798,40.956L240.167,41.348L239.874,38.024L240.656,37.926L240.648,37.437L239.092,37.339L239.581,19.158L239.874,9.969L239.972,5.375L240.167,-2.64L239.972,-2.738L239.972,-2.836L248.183,-3.031L252.679,-3.227L261.77,-3.618L261.77,-3.031L263.529,-3.129L263.529,-1.468L261.868,-1.369L261.868,-0.783L263.529,-0.783L263.529,0.096ZM255.514,20.331L255.319,20.331L255.022,4.789L247.893,4.789C247.827,4.854 247.727,4.887 247.596,4.887L247.596,8.992L247.694,17.105L247.791,33.43L247.303,33.43L247.303,34.407L249.382,34.309L253.836,34.016L254.728,34.016C254.793,34.016 254.827,33.952 254.827,33.82L254.827,33.527L254.925,33.332L255.123,29.031L255.514,20.331ZM245.57,34.505L245.667,34.505L245.667,33.43L245.57,33.43L245.57,34.505ZM260.695,52.002L262.161,52.1L261.868,56.303L257.762,56.205L257.566,58.551L243.882,58.356L237.039,58.258L236.159,58.161L231.76,58.161L225.212,58.063L225.212,13.293L225.309,6.744L225.309,4.398L223.843,4.398L223.452,4.495L222.279,4.495L219.738,4.691L218.173,4.789L218.076,5.473L219.248,5.57L218.76,58.649L214.557,58.649L214.557,57.476L211.624,57.574L211.233,5.18L209.865,5.277L209.963,1.074L211.233,0.976L211.233,0.39L213.97,0.39L214.068,-0.001L207.909,0.39L207.812,-3.813L218.369,-4.4L221.106,-4.595L222.377,-4.693L223.061,-4.693L223.55,-4.791L224.136,-4.791L234.4,-5.475L234.4,4.789L234.497,5.375L234.497,5.864L234.4,6.548L234.4,21.113L233.618,21.113L233.911,37.046L234.009,45.062L234.107,47.114L234.107,49.069L237.723,49.069L245.348,48.971L260.5,48.874L260.695,52.002ZM215.241,0.781L215.729,0.781L215.827,-0.099L215.241,-0.001L215.241,0.781ZM215.339,4.887L215.241,4.984L215.241,5.57L215.339,4.887ZM305.562,24.339L305.562,57.378L284.447,58.063L283.569,30.4L285.524,30.106L285.915,32.55L286.892,32.452L286.795,29.911L286.892,29.911L286.795,29.227L288.846,29.129L288.846,29.911L290.9,29.813L291.584,50.438L298.134,50.243L298.134,42.13L297.253,28.64L298.524,28.543L298.524,28.151L294.32,25.806L291.584,24.339L290.215,23.557L289.921,23.362L289.726,23.264L289.531,23.069L288.26,22.384L287.772,22.97L284.938,21.505L285.327,14.271L285.621,9.383L285.915,4.594L286.404,-3.716L305.074,-3.617L305.074,11.827L302.239,11.827L302.239,8.503L301.261,13.195L299.404,13.098L299.6,11.045L298.231,10.947L298.622,3.909L297.645,3.812L297.741,3.812L297.741,3.714L297.156,3.714L295.69,3.616L293.245,3.616L293.245,3.812L293.147,4.984L292.854,9.775L292.464,14.662L292.365,16.911L292.269,17.203L292.464,17.301L292.561,17.399L292.659,17.399L292.952,17.594L295.591,18.963L300.87,21.602L300.675,22.091L302.923,23.166L302.435,24.242L305.562,24.339ZM49.462,82.421L52.101,82.616L51.906,84.278L51.417,84.278L51.417,134.228L48.778,134.326L48.68,138.921L46.041,138.921L45.65,136.086L45.552,136.086L45.552,139.898L42.424,139.898L42.913,84.278L37.048,84.278L37.634,122.792L36.461,122.792L36.852,129.634L35.19,129.732L34.897,125.724L34.604,125.724L34.995,130.318L33.333,130.514L33.04,127.777L31.574,127.874L31.281,121.13L30.401,121.13L30.89,110.964L30.694,110.964L30.499,95.91L30.401,88.286L30.401,84.571L30.303,84.083L24.829,83.887L25.611,135.988L22.678,136.184L22.483,132.86L22.385,137.649L19.062,137.649L19.062,134.326L17.205,134.326L17.889,83.79L17.889,82.616L15.445,82.812L15.445,81.15L16.911,80.954L16.911,80.661L15.249,80.954L15.249,79.293L16.227,79.097L16.227,77.631L18.573,77.435L18.671,76.654L22.287,77.338L22.287,77.142L38.318,77.631L42.131,77.729L50.831,77.729L50.831,79.391L49.56,79.391L49.56,79.879L51.32,79.879L51.32,81.541L49.462,81.541L49.462,82.421ZM81.327,127.58L81.327,130.611L82.304,130.611L83.38,130.709L93.644,130.709L93.644,133.739L91.395,133.739L91.395,134.228L94.328,134.326L94.23,137.356L88.854,137.258L88.072,139.213L72.627,139.213L73.312,83.984L74.876,83.984L74.68,81.345L73.507,81.345L73.409,80.172L76.048,80.074L76.048,79.683L73.605,79.585L73.507,77.142L80.35,76.946L80.35,75.871L85.823,75.676L87.192,75.578L89.929,75.48L95.305,75.186L95.501,83.984L95.501,88.774L95.598,98.255L95.794,107.738L95.794,112.429L95.99,120.934L90.125,120.836L81.523,120.836L81.327,127.58ZM83.282,83.691L82.207,83.789L81.816,105.978L81.62,113.603L88.463,113.603L88.463,112.626L88.365,107.835L88.072,98.354L87.779,88.872L87.681,84.18L87.681,83.398L87.583,83.398L87.583,83.496L87.485,83.496L83.282,83.691ZM78.884,79.977L79.274,79.879L79.274,79.782L78.884,79.782L78.884,79.977ZM139.878,83.789L138.118,83.886L138.118,93.759L123.163,117.903L123.163,121.716L123.261,126.603L123.261,132.371L123.359,132.273L124.629,132.273L126.487,132.175L130.006,131.979L130.006,124.941L129.908,114.189L132.742,114.091L132.84,112.332L133.915,112.332L133.915,122.693L134.6,112.625L137.043,112.625L136.848,122.693L137.923,122.693L137.923,139.409L115.539,140.484L115.539,126.603L115.636,115.753L130.885,91.707L130.885,84.082L130.103,84.082L125.216,84.278L124.336,84.278L124.336,84.571L124.238,88.872L124.141,97.572L121.11,97.572L121.11,96.496L120.622,96.496L120.524,97.865L117.494,97.865L117.591,95.226L115.636,94.834L115.636,75.969L136.066,74.991L136.262,77.63L138.998,77.63L139.193,80.172L137.434,80.661L137.434,80.857L138.118,80.759L139.78,80.759L139.878,83.789ZM182.79,135.597L182.887,140.876L176.338,140.876L175.654,140.778L173.894,140.778L173.894,141.462L159.916,141.462L161.187,76.36L182.105,75.97L181.128,99.723L178.293,99.527L178.684,92.098L177.316,102.851L175.361,102.46L175.751,97.767L174.384,97.572L174.872,89.459L175.165,85.353L175.263,84.376L175.263,83.496L175.361,83.008C175.23,83.139 175.083,83.219 174.921,83.252C174.758,83.285 174.579,83.366 174.384,83.496L171.646,83.496L168.518,83.593L168.42,83.593L168.42,83.692L168.323,87.211L168.127,94.445L167.834,108.911L167.443,123.28L167.345,130.514L167.248,133.935L167.248,134.327L176.143,134.327L176.143,133.935L176.045,133.447L175.947,128.95L175.556,120.153L176.045,119.957L175.751,114.287L177.706,114.19L178.782,119.957L178.782,112.723L180.639,112.821L180.639,114.385L182.399,114.483L182.594,126.017L182.692,131.785L182.692,134.228L182.79,135.597ZM225.407,110.964L225.505,141.559L222.376,141.559L222.376,139.213L221.986,139.213L221.888,142.341L218.857,142.243L218.955,137.649L216.512,137.845L216.609,139.702L202.924,140.777L202.924,94.346L216.609,92.977L216.512,84.961L210.939,85.157L210.744,82.518L204.88,82.518L204.683,79.977L208.399,79.488L208.399,79.292L203.413,79.39L203.413,76.36L212.113,76.164L216.707,76.066L225.309,75.871L225.407,83.496L225.407,110.964ZM212.308,131.686L216.902,131.197L216.707,100.015L213.872,100.309L212.308,100.602L211.526,100.699L211.038,100.699C210.907,100.765 210.76,100.797 210.598,100.797C210.434,100.797 210.288,100.831 210.158,100.895L210.256,101.579L210.256,102.264L210.353,102.948L210.451,107.64L210.647,117.22L210.842,126.701L211.038,131.491L211.038,131.784C211.038,131.85 211.053,131.882 211.086,131.882C211.118,131.882 211.136,131.915 211.136,131.979C211.2,131.915 211.265,131.882 211.331,131.882L211.331,131.784L211.624,131.784L212.308,131.686ZM266.364,136.574L264.311,136.477L264.311,137.649L245.739,138.236L245.544,134.033L245.934,134.033L245.739,131.101L248.769,130.807L248.769,130.318L246.814,129.536L247.498,79.586L250.138,79.586L250.333,75.09L252.875,74.992L253.265,77.827L253.363,77.827L253.461,74.112L256.491,74.112L255.319,130.318L265.679,129.536L265.875,132.273L266.169,132.371L266.266,133.544L264.116,133.642L266.266,134.228L266.364,136.574Z" style="fill:white;"/>
    </g>
</svg>
